<svg xmlns="http://www.w3.org/2000/svg" xmlns:xlink="http://www.w3.org/1999/xlink" width="308" zoomAndPan="magnify" viewBox="0 0 230.87999 231" height="308" preserveAspectRatio="xMidYMid meet" version="1.0"><defs><clipPath id="7879529e5f"><path d="M 0 9 L 230.128906 9 L 230.128906 221 L 0 221 Z M 0 9 " clip-rule="nonzero"/></clipPath></defs><g clip-path="url(#7879529e5f)"><path fill="#11b981" d="M 213 20.8125 C 211.636719 19.675781 210.214844 18.617188 208.734375 17.636719 C 207.253906 16.660156 205.722656 15.765625 204.144531 14.953125 C 202.5625 14.144531 200.945312 13.425781 199.285156 12.796875 C 197.625 12.164062 195.933594 11.628906 194.214844 11.1875 C 192.496094 10.746094 190.757812 10.398438 189 10.148438 C 187.242188 9.902344 185.476562 9.75 183.699219 9.695312 C 181.925781 9.644531 180.152344 9.6875 178.382812 9.832031 C 176.613281 9.976562 174.859375 10.21875 173.117188 10.554688 L 156.191406 14.703125 C 155.097656 14.902344 154.015625 15.148438 152.941406 15.445312 C 151.871094 15.738281 150.8125 16.078125 149.769531 16.464844 C 148.726562 16.851562 147.703125 17.28125 146.699219 17.757812 C 145.695312 18.234375 144.710938 18.75 143.75 19.3125 C 142.792969 19.871094 141.855469 20.472656 140.949219 21.117188 C 140.042969 21.757812 139.164062 22.4375 138.316406 23.15625 C 137.464844 23.875 136.648438 24.628906 135.867188 25.417969 C 135.085938 26.207031 134.335938 27.027344 133.625 27.882812 C 132.914062 28.738281 132.238281 29.621094 131.605469 30.53125 C 130.96875 31.445312 130.375 32.382812 129.820312 33.347656 C 129.269531 34.3125 128.757812 35.300781 128.289062 36.308594 C 127.824219 37.316406 127.398438 38.34375 127.019531 39.390625 C 126.644531 40.433594 126.3125 41.496094 126.023438 42.570312 C 125.738281 43.644531 125.5 44.726562 125.308594 45.824219 C 125.113281 46.917969 124.96875 48.019531 124.875 49.128906 C 124.777344 50.234375 124.730469 51.34375 124.730469 52.457031 L 124.730469 200.855469 C 118.332031 201.792969 111.9375 201.792969 105.539062 200.855469 L 105.539062 52.457031 C 105.542969 51.355469 105.5 50.253906 105.410156 49.15625 C 105.320312 48.058594 105.179688 46.96875 104.996094 45.882812 C 104.808594 44.796875 104.578125 43.71875 104.296875 42.652344 C 104.019531 41.585938 103.695312 40.535156 103.324219 39.5 C 102.957031 38.460938 102.542969 37.441406 102.082031 36.4375 C 101.625 35.4375 101.125 34.457031 100.582031 33.496094 C 100.039062 32.539062 99.457031 31.605469 98.832031 30.699219 C 98.207031 29.789062 97.546875 28.910156 96.847656 28.058594 C 96.148438 27.207031 95.414062 26.390625 94.640625 25.601562 C 93.871094 24.8125 93.066406 24.0625 92.230469 23.34375 C 91.394531 22.625 90.53125 21.945312 89.636719 21.304688 C 88.742188 20.660156 87.820312 20.058594 86.875 19.492188 C 85.925781 18.929688 84.957031 18.410156 83.964844 17.929688 C 82.976562 17.449219 81.964844 17.015625 80.933594 16.621094 C 79.90625 16.230469 78.859375 15.882812 77.800781 15.582031 C 76.742188 15.28125 75.671875 15.027344 74.589844 14.816406 L 56.609375 10.441406 C 55.746094 10.285156 54.882812 10.148438 54.011719 10.039062 C 53.144531 9.929688 52.273438 9.84375 51.402344 9.78125 C 50.527344 9.71875 49.652344 9.679688 48.777344 9.664062 C 47.902344 9.648438 47.027344 9.660156 46.152344 9.691406 C 45.277344 9.726562 44.402344 9.78125 43.53125 9.863281 C 42.660156 9.945312 41.789062 10.050781 40.925781 10.179688 C 40.058594 10.308594 39.195312 10.460938 38.339844 10.636719 C 37.480469 10.8125 36.628906 11.011719 35.78125 11.234375 C 34.933594 11.457031 34.09375 11.699219 33.261719 11.96875 C 32.429688 12.238281 31.601562 12.527344 30.785156 12.84375 C 29.96875 13.15625 29.160156 13.492188 28.359375 13.851562 C 27.5625 14.207031 26.773438 14.585938 25.996094 14.988281 C 25.214844 15.390625 24.449219 15.8125 23.695312 16.253906 C 22.9375 16.699219 22.195312 17.160156 21.46875 17.644531 C 20.738281 18.128906 20.019531 18.632812 19.320312 19.15625 C 18.617188 19.679688 17.929688 20.21875 17.257812 20.78125 C 16.585938 21.339844 15.925781 21.921875 15.285156 22.515625 C 14.644531 23.113281 14.019531 23.726562 13.414062 24.359375 C 12.808594 24.988281 12.21875 25.636719 11.644531 26.296875 C 11.074219 26.960938 10.519531 27.640625 9.984375 28.332031 C 9.449219 29.027344 8.933594 29.734375 8.4375 30.457031 C 7.945312 31.175781 7.46875 31.910156 7.011719 32.660156 C 6.554688 33.40625 6.121094 34.167969 5.707031 34.9375 C 5.292969 35.710938 4.898438 36.492188 4.527344 37.285156 C 4.15625 38.078125 3.808594 38.878906 3.480469 39.691406 C 3.152344 40.503906 2.847656 41.324219 2.566406 42.152344 C 2.28125 42.980469 2.023438 43.816406 1.785156 44.660156 C 1.550781 45.503906 1.335938 46.351562 1.144531 47.207031 C 0.957031 48.0625 0.789062 48.921875 0.644531 49.785156 C 0.503906 50.648438 0.382812 51.515625 0.289062 52.386719 C 0.191406 53.257812 0.121094 54.128906 0.0703125 55.003906 C 0.0234375 55.878906 0 56.753906 0 57.628906 L 0 161.183594 C 0 162.574219 0.0585938 163.960938 0.179688 165.347656 C 0.300781 166.734375 0.484375 168.109375 0.722656 169.480469 C 0.964844 170.851562 1.265625 172.207031 1.621094 173.550781 C 1.980469 174.894531 2.398438 176.21875 2.871094 177.527344 C 3.34375 178.835938 3.875 180.121094 4.460938 181.382812 C 5.046875 182.644531 5.6875 183.878906 6.378906 185.082031 C 7.070312 186.289062 7.816406 187.460938 8.609375 188.605469 C 9.40625 189.746094 10.25 190.851562 11.140625 191.917969 C 12.03125 192.984375 12.96875 194.011719 13.949219 195 C 14.929688 195.984375 15.949219 196.925781 17.011719 197.824219 C 18.074219 198.722656 19.175781 199.574219 20.3125 200.375 C 21.445312 201.175781 22.617188 201.929688 23.816406 202.628906 C 25.019531 203.328125 26.25 203.976562 27.507812 204.570312 C 28.765625 205.160156 30.046875 205.699219 31.351562 206.183594 C 32.65625 206.664062 33.980469 207.089844 35.320312 207.453125 C 36.664062 207.820312 38.015625 208.128906 39.386719 208.378906 L 99.699219 219.34375 C 109.988281 221.214844 120.28125 221.214844 130.574219 219.34375 L 190.933594 208.378906 C 192.300781 208.128906 193.652344 207.820312 194.996094 207.453125 C 196.335938 207.082031 197.65625 206.65625 198.960938 206.175781 C 200.265625 205.691406 201.542969 205.152344 202.800781 204.558594 C 204.058594 203.964844 205.285156 203.316406 206.488281 202.617188 C 207.6875 201.917969 208.855469 201.164062 209.988281 200.363281 C 211.125 199.558594 212.222656 198.710938 213.285156 197.8125 C 214.34375 196.914062 215.367188 195.972656 216.34375 194.984375 C 217.324219 194 218.257812 192.972656 219.148438 191.902344 C 220.039062 190.835938 220.878906 189.730469 221.675781 188.589844 C 222.46875 187.449219 223.210938 186.277344 223.902344 185.070312 C 224.59375 183.867188 225.234375 182.632812 225.820312 181.371094 C 226.402344 180.109375 226.933594 178.828125 227.40625 177.519531 C 227.878906 176.210938 228.292969 174.886719 228.652344 173.542969 C 229.011719 172.199219 229.308594 170.84375 229.550781 169.476562 C 229.789062 168.105469 229.96875 166.730469 230.089844 165.34375 C 230.210938 163.960938 230.269531 162.574219 230.269531 161.183594 L 230.269531 57.628906 C 230.273438 54.113281 229.890625 50.640625 229.128906 47.210938 C 228.367188 43.78125 227.238281 40.472656 225.746094 37.292969 C 224.253906 34.109375 222.429688 31.128906 220.28125 28.351562 C 218.132812 25.570312 215.703125 23.058594 213 20.8125 Z M 213 20.8125 " fill-opacity="1" fill-rule="nonzero"/></g></svg>