<svg xmlns="http://www.w3.org/2000/svg" xmlns:xlink="http://www.w3.org/1999/xlink" width="308" zoomAndPan="magnify" viewBox="0 0 230.87999 231" height="308" preserveAspectRatio="xMidYMid meet" version="1.0"><defs><clipPath id="d8967bb0e4"><path d="M 0 0.0585938 L 230.128906 0.0585938 L 230.128906 230.191406 L 0 230.191406 Z M 0 0.0585938 " clip-rule="nonzero"/></clipPath></defs><g clip-path="url(#d8967bb0e4)"><path fill="#633dff" d="M 83.472656 172.761719 L 28.785156 172.761719 C 14.460938 172.761719 0 161.882812 0 137.589844 L 0 89.234375 C 0.0234375 86.503906 0.171875 83.785156 0.445312 81.070312 C 0.714844 78.355469 1.109375 75.660156 1.625 72.980469 C 2.140625 70.300781 2.777344 67.652344 3.53125 65.03125 C 4.285156 62.410156 5.160156 59.828125 6.148438 57.289062 C 7.136719 54.746094 8.238281 52.253906 9.453125 49.8125 C 10.667969 47.367188 11.992188 44.988281 13.421875 42.664062 C 14.855469 40.34375 16.386719 38.089844 18.019531 35.90625 C 19.65625 33.722656 21.386719 31.617188 23.210938 29.589844 C 25.035156 27.5625 26.949219 25.621094 28.949219 23.769531 C 30.953125 21.914062 33.03125 20.15625 35.191406 18.492188 C 37.351562 16.824219 39.585938 15.261719 41.886719 13.796875 C 44.1875 12.335938 46.550781 10.980469 48.976562 9.730469 C 51.402344 8.480469 53.878906 7.34375 56.40625 6.320312 C 58.933594 5.292969 61.503906 4.386719 64.113281 3.59375 C 66.722656 2.800781 69.363281 2.128906 72.035156 1.574219 C 74.703125 1.023438 77.394531 0.589844 80.105469 0.28125 C 81.644531 0.167969 83.1875 0.0976562 84.730469 0.0703125 C 86.273438 0.0390625 87.816406 0.0507812 89.359375 0.105469 C 90.902344 0.160156 92.441406 0.253906 93.980469 0.390625 C 95.515625 0.527344 97.050781 0.703125 98.578125 0.921875 C 100.105469 1.140625 101.628906 1.402344 103.140625 1.699219 C 104.65625 2 106.160156 2.339844 107.65625 2.722656 C 109.152344 3.101562 110.636719 3.523438 112.109375 3.984375 C 113.585938 4.445312 115.042969 4.945312 116.492188 5.484375 C 117.9375 6.019531 119.367188 6.597656 120.785156 7.214844 C 122.199219 7.828125 123.597656 8.480469 124.980469 9.171875 C 126.359375 9.863281 127.722656 10.589844 129.0625 11.351562 C 130.40625 12.117188 131.722656 12.914062 133.023438 13.75 C 134.320312 14.582031 135.597656 15.453125 136.851562 16.355469 C 138.101562 17.257812 139.328125 18.191406 140.53125 19.160156 C 141.734375 20.128906 142.910156 21.128906 144.058594 22.160156 C 145.207031 23.191406 146.324219 24.253906 147.417969 25.347656 C 148.507812 26.4375 149.570312 27.558594 150.601562 28.707031 C 151.632812 29.855469 152.632812 31.03125 153.601562 32.230469 C 154.570312 33.433594 155.503906 34.660156 156.410156 35.914062 C 157.3125 37.164062 158.179688 38.441406 159.011719 39.738281 C 159.847656 41.039062 160.648438 42.359375 161.410156 43.699219 C 162.171875 45.042969 162.898438 46.402344 163.589844 47.785156 C 164.28125 49.164062 164.933594 50.5625 165.550781 51.980469 C 166.164062 53.394531 166.742188 54.824219 167.28125 56.273438 C 167.820312 57.71875 168.320312 59.179688 168.78125 60.652344 C 169.238281 62.125 169.660156 63.609375 170.042969 65.105469 C 170.421875 66.601562 170.761719 68.105469 171.0625 69.621094 C 171.363281 71.136719 171.621094 72.65625 171.839844 74.183594 C 172.058594 75.714844 172.234375 77.246094 172.371094 78.785156 C 172.507812 80.320312 172.601562 81.859375 172.65625 83.402344 C 172.710938 84.945312 172.722656 86.488281 172.695312 88.035156 C 172.664062 89.578125 172.59375 91.117188 172.484375 92.65625 C 172.171875 95.367188 171.742188 98.058594 171.1875 100.734375 C 170.632812 103.40625 169.960938 106.046875 169.167969 108.65625 C 168.375 111.269531 167.464844 113.839844 166.4375 116.367188 C 165.414062 118.894531 164.273438 121.371094 163.023438 123.796875 C 161.773438 126.222656 160.417969 128.585938 158.953125 130.890625 C 157.488281 133.191406 155.921875 135.425781 154.257812 137.585938 C 152.589844 139.746094 150.828125 141.828125 148.976562 143.828125 C 147.121094 145.828125 145.179688 147.742188 143.148438 149.570312 C 141.121094 151.394531 139.015625 153.125 136.828125 154.757812 C 134.644531 156.394531 132.390625 157.925781 130.066406 159.355469 C 127.742188 160.785156 125.359375 162.109375 122.914062 163.324219 C 120.472656 164.539062 117.976562 165.640625 115.433594 166.628906 C 112.890625 167.617188 110.308594 168.488281 107.6875 169.242188 C 105.0625 169.996094 102.414062 170.632812 99.730469 171.144531 C 97.050781 171.660156 94.355469 172.054688 91.640625 172.324219 C 88.925781 172.59375 86.203125 172.738281 83.472656 172.761719 Z M 191.890625 87.179688 L 191.777344 87.179688 C 191.777344 89.453125 191.777344 91.726562 191.664062 94.011719 C 187.957031 145.898438 140.53125 189.824219 87.15625 191.769531 L 87.15625 191.914062 C 88.832031 194.816406 90.6875 197.597656 92.722656 200.257812 C 94.761719 202.914062 96.964844 205.429688 99.328125 207.800781 C 101.695312 210.171875 104.207031 212.378906 106.863281 214.421875 C 109.519531 216.460938 112.296875 218.324219 115.195312 220 C 118.09375 221.679688 121.089844 223.164062 124.183594 224.449219 C 127.277344 225.734375 130.441406 226.8125 133.675781 227.6875 C 136.910156 228.558594 140.1875 229.214844 143.507812 229.65625 C 146.828125 230.101562 150.164062 230.324219 153.515625 230.332031 L 201.488281 230.332031 C 202.429688 230.332031 203.371094 230.285156 204.308594 230.191406 C 205.246094 230.101562 206.179688 229.960938 207.101562 229.777344 C 208.027344 229.59375 208.941406 229.363281 209.84375 229.089844 C 210.746094 228.816406 211.632812 228.5 212.503906 228.140625 C 213.375 227.777344 214.222656 227.375 215.054688 226.933594 C 215.886719 226.488281 216.695312 226.003906 217.476562 225.480469 C 218.261719 224.957031 219.019531 224.394531 219.746094 223.796875 C 220.476562 223.199219 221.171875 222.566406 221.839844 221.898438 C 222.507812 221.234375 223.140625 220.535156 223.738281 219.808594 C 224.335938 219.078125 224.894531 218.324219 225.421875 217.539062 C 225.945312 216.753906 226.429688 215.945312 226.871094 215.117188 C 227.316406 214.285156 227.71875 213.433594 228.078125 212.5625 C 228.441406 211.691406 228.757812 210.804688 229.03125 209.902344 C 229.304688 209 229.535156 208.085938 229.71875 207.164062 C 229.902344 206.238281 230.039062 205.304688 230.132812 204.367188 C 230.226562 203.429688 230.269531 202.488281 230.269531 201.546875 L 230.269531 153.574219 C 230.265625 150.222656 230.046875 146.886719 229.605469 143.566406 C 229.164062 140.242188 228.511719 136.964844 227.640625 133.730469 C 226.769531 130.492188 225.695312 127.328125 224.410156 124.234375 C 223.125 121.140625 221.644531 118.140625 219.96875 115.238281 C 218.289062 112.339844 216.433594 109.558594 214.390625 106.902344 C 212.351562 104.246094 210.144531 101.730469 207.777344 99.363281 C 205.40625 96.996094 202.890625 94.789062 200.234375 92.75 C 197.574219 90.710938 194.792969 88.855469 191.890625 87.179688 Z M 191.890625 87.179688 " fill-opacity="1" fill-rule="nonzero"/></g></svg>