<svg xmlns="http://www.w3.org/2000/svg" xmlns:xlink="http://www.w3.org/1999/xlink" width="308" zoomAndPan="magnify" viewBox="0 0 230.87999 231" height="308" preserveAspectRatio="xMidYMid meet" version="1.0"><defs><clipPath id="e9f3949c49"><path d="M 19 0.0585938 L 212 0.0585938 L 212 230.191406 L 19 230.191406 Z M 19 0.0585938 " clip-rule="nonzero"/></clipPath></defs><g clip-path="url(#e9f3949c49)"><path fill="#8b5cf6" d="M 210.851562 96.007812 L 143.917969 96.007812 C 128.050781 96.007812 115.136719 83.09375 115.136719 67.222656 L 115.136719 0.289062 C 113.589844 0.183594 112.046875 0.0585938 110.480469 0.0585938 L 67.164062 0.0585938 C 40.710938 0.0585938 19.1875 21.582031 19.1875 48.03125 L 19.1875 182.359375 C 19.1875 208.808594 40.710938 230.332031 67.164062 230.332031 L 163.109375 230.332031 C 189.5625 230.332031 211.082031 208.808594 211.082031 182.359375 L 211.082031 110.398438 C 211.082031 108.835938 210.957031 97.550781 210.851562 96.007812 Z M 79.566406 170.738281 L 98.941406 190.109375 C 102.691406 193.863281 102.691406 199.925781 98.941406 203.675781 C 97.070312 205.546875 94.613281 206.488281 92.15625 206.488281 C 89.699219 206.488281 87.242188 205.546875 85.371094 203.675781 L 66 184.304688 C 54.777344 173.089844 54.777344 154.820312 66 143.59375 L 85.785156 123.8125 C 89.535156 120.058594 95.601562 120.058594 99.351562 123.8125 C 103.105469 127.554688 103.105469 133.625 99.351562 137.378906 L 79.566406 157.164062 C 75.828125 160.902344 75.828125 166.988281 79.566406 170.738281 Z M 164.269531 184.304688 L 144.898438 203.675781 C 143.027344 205.546875 140.570312 206.488281 138.113281 206.488281 C 135.660156 206.488281 133.203125 205.546875 131.332031 203.675781 C 127.578125 199.925781 127.578125 193.863281 131.332031 190.109375 L 150.703125 170.738281 C 154.445312 166.996094 154.445312 160.914062 150.703125 157.164062 L 130.917969 137.378906 C 127.167969 133.625 127.167969 127.554688 130.917969 123.8125 C 134.671875 120.058594 140.734375 120.058594 144.484375 123.8125 L 164.269531 143.59375 C 175.496094 154.8125 175.496094 173.078125 164.269531 184.304688 Z M 134.324219 67.222656 L 134.324219 4.472656 C 143.085938 7.792969 151.144531 12.90625 157.976562 19.730469 L 191.402344 53.175781 C 198.234375 59.996094 203.347656 68.058594 206.667969 76.816406 L 143.917969 76.816406 C 138.625 76.816406 134.324219 72.507812 134.324219 67.222656 Z M 134.324219 67.222656 " fill-opacity="1" fill-rule="nonzero"/></g></svg>