<svg xmlns="http://www.w3.org/2000/svg" xmlns:xlink="http://www.w3.org/1999/xlink" width="308" zoomAndPan="magnify" viewBox="0 0 230.87999 231" height="308" preserveAspectRatio="xMidYMid meet" version="1.0"><defs><clipPath id="ec11d8dfaf"><path d="M 19 0.0585938 L 212 0.0585938 L 212 230.191406 L 19 230.191406 Z M 19 0.0585938 " clip-rule="nonzero"/></clipPath></defs><g clip-path="url(#ec11d8dfaf)"><path fill="#f90086" d="M 134.324219 67.367188 L 134.324219 4.609375 C 143.085938 7.925781 151.144531 13.042969 157.976562 19.863281 L 191.402344 53.308594 C 198.234375 60.132812 203.347656 68.191406 206.667969 76.953125 L 143.917969 76.953125 C 138.625 76.953125 134.324219 72.644531 134.324219 67.355469 Z M 210.851562 96.148438 L 143.917969 96.148438 C 128.050781 96.148438 115.136719 83.234375 115.136719 67.367188 L 115.136719 0.425781 C 113.589844 0.320312 112.046875 0.195312 110.480469 0.195312 L 67.164062 0.195312 C 40.710938 0.203125 19.1875 21.726562 19.1875 48.175781 L 19.1875 182.5 C 19.1875 208.953125 40.710938 230.476562 67.164062 230.476562 L 163.109375 230.476562 C 189.5625 230.476562 211.082031 208.953125 211.082031 182.5 L 211.082031 100.804688 C 211.082031 99.238281 210.957031 97.695312 210.851562 96.148438 Z M 150.703125 162.160156 C 148.832031 164.03125 146.375 164.972656 143.917969 164.972656 C 141.464844 164.972656 139.007812 164.03125 137.136719 162.160156 L 124.730469 149.753906 L 124.730469 191.953125 C 124.730469 197.25 120.433594 201.546875 115.136719 201.546875 C 109.839844 201.546875 105.539062 197.25 105.539062 191.953125 L 105.539062 149.753906 L 93.136719 162.160156 C 89.382812 165.914062 83.320312 165.914062 79.566406 162.160156 C 75.816406 158.410156 75.816406 152.347656 79.566406 148.59375 L 95.054688 133.109375 C 106.125 122.035156 124.144531 122.035156 135.226562 133.109375 L 150.710938 148.59375 C 154.464844 152.347656 154.464844 158.410156 150.710938 162.160156 Z M 150.703125 162.160156 " fill-opacity="1" fill-rule="nonzero"/></g></svg>