<svg xmlns="http://www.w3.org/2000/svg" xmlns:xlink="http://www.w3.org/1999/xlink" width="308" zoomAndPan="magnify" viewBox="0 0 230.87999 231" height="308" preserveAspectRatio="xMidYMid meet" version="1.0"><defs><clipPath id="e16ed4b639"><path d="M 0 24 L 230.128906 24 L 230.128906 206 L 0 206 Z M 0 24 " clip-rule="nonzero"/></clipPath></defs><g clip-path="url(#e16ed4b639)"><path fill="#2675bd" d="M 212.050781 48.359375 C 203.457031 33.082031 188.179688 24.488281 170.992188 24.488281 L 57.367188 24.488281 C 40.183594 24.488281 24.90625 33.082031 16.3125 48.359375 C 5.808594 67.453125 0.078125 88.460938 0.078125 110.421875 C 0.078125 162.9375 21.085938 205.902344 47.820312 205.902344 C 62.140625 205.902344 73.601562 192.535156 82.195312 164.847656 C 83.148438 161.027344 86.96875 158.164062 91.742188 158.164062 L 138.527344 158.164062 C 142.347656 158.164062 146.167969 161.027344 148.078125 164.847656 C 156.671875 192.535156 168.128906 205.902344 182.449219 205.902344 C 209.1875 205.902344 230.191406 162.9375 230.191406 110.421875 C 228.28125 88.460938 222.554688 67.453125 212.050781 48.359375 Z M 86.011719 100.875 L 76.464844 100.875 L 76.464844 110.421875 C 76.464844 116.148438 72.644531 119.96875 66.917969 119.96875 C 61.1875 119.96875 57.367188 116.148438 57.367188 110.421875 L 57.367188 100.875 L 47.820312 100.875 C 42.09375 100.875 38.273438 97.054688 38.273438 91.324219 C 38.273438 85.597656 42.09375 81.777344 47.820312 81.777344 L 57.367188 81.777344 L 57.367188 72.230469 C 57.367188 66.5 61.1875 62.679688 66.917969 62.679688 C 72.644531 62.679688 76.464844 66.5 76.464844 72.230469 L 76.464844 81.777344 L 86.011719 81.777344 C 91.742188 81.777344 95.5625 85.597656 95.5625 91.324219 C 95.5625 97.054688 91.742188 100.875 86.011719 100.875 Z M 149.03125 119.96875 C 141.394531 119.96875 134.710938 113.285156 134.710938 105.648438 C 134.710938 98.007812 141.394531 91.324219 149.03125 91.324219 C 156.671875 91.324219 163.355469 98.007812 163.355469 105.648438 C 163.355469 113.285156 155.714844 119.96875 149.03125 119.96875 Z M 176.722656 91.324219 C 170.039062 91.324219 162.398438 84.640625 162.398438 77.003906 C 162.398438 69.363281 170.039062 62.679688 176.722656 62.679688 C 183.40625 62.679688 191.042969 69.363281 191.042969 77.003906 C 191.042969 84.640625 184.359375 91.324219 176.722656 91.324219 Z M 176.722656 91.324219 " fill-opacity="1" fill-rule="nonzero"/></g></svg>