<?xml version="1.0" encoding="UTF-8" standalone="no"?>
<!DOCTYPE svg PUBLIC "-//W3C//DTD SVG 1.1//EN" "http://www.w3.org/Graphics/SVG/1.1/DTD/svg11.dtd">
<svg width="100%" height="100%" viewBox="0 0 308 308" version="1.1" xmlns="http://www.w3.org/2000/svg" xmlns:xlink="http://www.w3.org/1999/xlink" xml:space="preserve" xmlns:serif="http://www.serif.com/" style="fill-rule:evenodd;clip-rule:evenodd;stroke-linejoin:round;stroke-miterlimit:2;">
    <g transform="matrix(1.333333,0,0,1.333333,0.080007,0)">
        <clipPath id="_clip1">
            <rect x="0" y="0.059" width="230.129" height="230.133"/>
        </clipPath>
        <g clip-path="url(#_clip1)">
            <path d="M83.473,172.762L28.785,172.762C14.461,172.762 0,161.883 0,137.59L0,89.234C0.023,86.504 0.172,83.785 0.445,81.07C0.715,78.355 1.109,75.66 1.625,72.98C2.141,70.301 2.777,67.652 3.531,65.031C4.285,62.41 5.16,59.828 6.148,57.289C7.137,54.746 8.238,52.254 9.453,49.812C10.668,47.367 11.992,44.988 13.422,42.664C14.855,40.344 16.387,38.09 18.02,35.906C19.656,33.723 21.387,31.617 23.211,29.59C25.035,27.562 26.949,25.621 28.949,23.77C30.953,21.914 33.031,20.156 35.191,18.492C37.352,16.824 39.586,15.262 41.887,13.797C44.188,12.336 46.551,10.98 48.977,9.73C51.402,8.48 53.879,7.344 56.406,6.32C58.934,5.293 61.504,4.387 64.113,3.594C66.723,2.801 69.363,2.129 72.035,1.574C74.703,1.023 77.395,0.59 80.105,0.281C81.645,0.168 83.188,0.098 84.73,0.07C86.273,0.039 87.816,0.051 89.359,0.105C90.902,0.16 92.441,0.254 93.98,0.391C95.516,0.527 97.051,0.703 98.578,0.922C100.105,1.141 101.629,1.402 103.141,1.699C104.656,2 106.16,2.34 107.656,2.723C109.152,3.102 110.637,3.523 112.109,3.984C113.586,4.445 115.043,4.945 116.492,5.484C117.938,6.02 119.367,6.598 120.785,7.215C122.199,7.828 123.598,8.48 124.98,9.172C126.359,9.863 127.723,10.59 129.062,11.352C130.406,12.117 131.723,12.914 133.023,13.75C134.32,14.582 135.598,15.453 136.852,16.355C138.102,17.258 139.328,18.191 140.531,19.16C141.734,20.129 142.91,21.129 144.059,22.16C145.207,23.191 146.324,24.254 147.418,25.348C148.508,26.438 149.57,27.559 150.602,28.707C151.633,29.855 152.633,31.031 153.602,32.23C154.57,33.434 155.504,34.66 156.41,35.914C157.312,37.164 158.18,38.441 159.012,39.738C159.848,41.039 160.648,42.359 161.41,43.699C162.172,45.043 162.898,46.402 163.59,47.785C164.281,49.164 164.934,50.562 165.551,51.98C166.164,53.395 166.742,54.824 167.281,56.273C167.82,57.719 168.32,59.18 168.781,60.652C169.238,62.125 169.66,63.609 170.043,65.105C170.422,66.602 170.762,68.105 171.062,69.621C171.363,71.137 171.621,72.656 171.84,74.184C172.059,75.715 172.234,77.246 172.371,78.785C172.508,80.32 172.602,81.859 172.656,83.402C172.711,84.945 172.723,86.488 172.695,88.035C172.664,89.578 172.594,91.117 172.484,92.656C172.172,95.367 171.742,98.059 171.188,100.734C170.633,103.406 169.961,106.047 169.168,108.656C168.375,111.27 167.465,113.84 166.438,116.367C165.414,118.895 164.273,121.371 163.023,123.797C161.773,126.223 160.418,128.586 158.953,130.891C157.488,133.191 155.922,135.426 154.258,137.586C152.59,139.746 150.828,141.828 148.977,143.828C147.121,145.828 145.18,147.742 143.148,149.57C141.121,151.395 139.016,153.125 136.828,154.758C134.645,156.395 132.391,157.926 130.066,159.355C127.742,160.785 125.359,162.109 122.914,163.324C120.473,164.539 117.977,165.641 115.434,166.629C112.891,167.617 110.309,168.488 107.688,169.242C105.062,169.996 102.414,170.633 99.73,171.145C97.051,171.66 94.355,172.055 91.641,172.324C88.926,172.594 86.203,172.738 83.473,172.762ZM191.891,87.18L191.777,87.18C191.777,89.453 191.777,91.727 191.664,94.012C187.957,145.898 140.531,189.824 87.156,191.77L87.156,191.914C88.832,194.816 90.688,197.598 92.723,200.258C94.762,202.914 96.965,205.43 99.328,207.801C101.695,210.172 104.207,212.379 106.863,214.422C109.52,216.461 112.297,218.324 115.195,220C118.094,221.68 121.09,223.164 124.184,224.449C127.277,225.734 130.441,226.812 133.676,227.688C136.91,228.559 140.188,229.215 143.508,229.656C146.828,230.102 150.164,230.324 153.516,230.332L201.488,230.332C202.43,230.332 203.371,230.285 204.309,230.191C205.246,230.102 206.18,229.961 207.102,229.777C208.027,229.594 208.941,229.363 209.844,229.09C210.746,228.816 211.633,228.5 212.504,228.141C213.375,227.777 214.223,227.375 215.055,226.934C215.887,226.488 216.695,226.004 217.477,225.48C218.262,224.957 219.02,224.395 219.746,223.797C220.477,223.199 221.172,222.566 221.84,221.898C222.508,221.234 223.141,220.535 223.738,219.809C224.336,219.078 224.895,218.324 225.422,217.539C225.945,216.754 226.43,215.945 226.871,215.117C227.316,214.285 227.719,213.434 228.078,212.562C228.441,211.691 228.758,210.805 229.031,209.902C229.305,209 229.535,208.086 229.719,207.164C229.902,206.238 230.039,205.305 230.133,204.367C230.227,203.43 230.27,202.488 230.27,201.547L230.27,153.574C230.266,150.223 230.047,146.887 229.605,143.566C229.164,140.242 228.512,136.965 227.641,133.73C226.77,130.492 225.695,127.328 224.41,124.234C223.125,121.141 221.645,118.141 219.969,115.238C218.289,112.34 216.434,109.559 214.391,106.902C212.352,104.246 210.145,101.73 207.777,99.363C205.406,96.996 202.891,94.789 200.234,92.75C197.574,90.711 194.793,88.855 191.891,87.18Z" style="fill:url(#_Linear2);fill-rule:nonzero;"/>
        </g>
    </g>
    <defs>
        <linearGradient id="_Linear2" x1="0" y1="0" x2="1" y2="0" gradientUnits="userSpaceOnUse" gradientTransform="matrix(230.269531,0,0,230.278764,0,115.192649)"><stop offset="0" style="stop-color:rgb(255,0,153);stop-opacity:1"/><stop offset="1" style="stop-color:rgb(171,61,255);stop-opacity:1"/></linearGradient>
    </defs>
</svg>
