<?xml version="1.0" encoding="UTF-8" standalone="no"?>
<!DOCTYPE svg PUBLIC "-//W3C//DTD SVG 1.1//EN" "http://www.w3.org/Graphics/SVG/1.1/DTD/svg11.dtd">
<svg width="100%" height="100%" viewBox="0 0 20 20" version="1.1" xmlns="http://www.w3.org/2000/svg" xmlns:xlink="http://www.w3.org/1999/xlink" xml:space="preserve" xmlns:serif="http://www.serif.com/" style="fill-rule:evenodd;clip-rule:evenodd;stroke-linejoin:round;stroke-miterlimit:2;">
    <g transform="matrix(1,0,0,1,-2,-2)">
        <path d="M12,2C6.48,2 2,6.48 2,12C2,17.52 6.48,22 12,22C17.52,22 22,17.52 22,12C22,6.48 17.52,2 12,2ZM10.624,16.376C10.459,16.541 10.234,16.634 10,16.634C9.766,16.634 9.541,16.541 9.376,16.376C8.44,15.44 6.681,13.681 5.702,12.702C5.516,12.516 5.411,12.263 5.411,12C5.411,11.737 5.516,11.484 5.702,11.298C5.705,11.295 5.708,11.292 5.712,11.288C6.097,10.903 6.723,10.902 7.109,11.287C7.796,11.972 8.828,13.001 9.455,13.627C9.756,13.927 10.243,13.927 10.544,13.626C11.891,12.279 15.378,8.792 16.882,7.288C17.07,7.1 17.324,6.995 17.589,6.996C17.854,6.996 18.108,7.102 18.295,7.29C18.3,7.295 18.305,7.3 18.309,7.305C18.691,7.689 18.69,8.31 18.307,8.693C16.607,10.393 12.25,14.75 10.624,16.376Z" style="fill:url(#_Linear1);fill-rule:nonzero;"/>
    </g>
    <defs>
        <linearGradient id="_Linear1" x1="0" y1="0" x2="1" y2="0" gradientUnits="userSpaceOnUse" gradientTransform="matrix(20,0,0,20,2,12)"><stop offset="0" style="stop-color:rgb(90,203,189);stop-opacity:1"/><stop offset="1" style="stop-color:rgb(34,197,94);stop-opacity:1"/></linearGradient>
    </defs>
</svg>
