<?xml version="1.0" encoding="UTF-8" standalone="no"?>
<!DOCTYPE svg PUBLIC "-//W3C//DTD SVG 1.1//EN" "http://www.w3.org/Graphics/SVG/1.1/DTD/svg11.dtd">
<svg width="100%" height="100%" viewBox="0 0 308 308" version="1.1" xmlns="http://www.w3.org/2000/svg" xmlns:xlink="http://www.w3.org/1999/xlink" xml:space="preserve" xmlns:serif="http://www.serif.com/" style="fill-rule:evenodd;clip-rule:evenodd;stroke-linejoin:round;stroke-miterlimit:2;">
    <g transform="matrix(1.333333,0,0,1.333333,0.080007,0)">
        <g>
            <clipPath id="_clip1">
                <rect x="19" y="0.059" width="193" height="230.133"/>
            </clipPath>
            <g clip-path="url(#_clip1)">
                <path d="M210.852,96.008L143.918,96.008C128.051,96.008 115.137,83.094 115.137,67.223L115.137,0.289C113.59,0.184 112.047,0.059 110.48,0.059L67.164,0.059C40.711,0.059 19.188,21.582 19.188,48.031L19.188,182.359C19.188,208.809 40.711,230.332 67.164,230.332L163.109,230.332C189.562,230.332 211.082,208.809 211.082,182.359L211.082,110.398C211.082,108.836 210.957,97.551 210.852,96.008ZM79.566,170.738L98.941,190.109C102.691,193.863 102.691,199.926 98.941,203.676C97.07,205.547 94.613,206.488 92.156,206.488C89.699,206.488 87.242,205.547 85.371,203.676L66,184.305C54.777,173.09 54.777,154.82 66,143.594L85.785,123.812C89.535,120.059 95.602,120.059 99.352,123.812C103.105,127.555 103.105,133.625 99.352,137.379L79.566,157.164C75.828,160.902 75.828,166.988 79.566,170.738ZM164.27,184.305L144.898,203.676C143.027,205.547 140.57,206.488 138.113,206.488C135.66,206.488 133.203,205.547 131.332,203.676C127.578,199.926 127.578,193.863 131.332,190.109L150.703,170.738C154.445,166.996 154.445,160.914 150.703,157.164L130.918,137.379C127.168,133.625 127.168,127.555 130.918,123.812C134.672,120.059 140.734,120.059 144.484,123.812L164.27,143.594C175.496,154.812 175.496,173.078 164.27,184.305ZM134.324,67.223L134.324,4.473C143.086,7.793 151.145,12.906 157.977,19.73L191.402,53.176C198.234,59.996 203.348,68.059 206.668,76.816L143.918,76.816C138.625,76.816 134.324,72.508 134.324,67.223Z" style="fill:url(#_Linear2);fill-rule:nonzero;"/>
            </g>
        </g>
    </g>
    <defs>
        <linearGradient id="_Linear2" x1="0" y1="0" x2="1" y2="0" gradientUnits="userSpaceOnUse" gradientTransform="matrix(191.894531,0,0,191.894531,19.1875,115.195312)"><stop offset="0" style="stop-color:rgb(202,90,234);stop-opacity:1"/><stop offset="1" style="stop-color:rgb(174,41,177);stop-opacity:1"/></linearGradient>
    </defs>
</svg>
