<?xml version="1.0" encoding="UTF-8" standalone="no"?><!DOCTYPE svg PUBLIC "-//W3C//DTD SVG 1.1//EN" "http://www.w3.org/Graphics/SVG/1.1/DTD/svg11.dtd"><svg width="100%" height="100%" viewBox="0 0 124 124" version="1.1" xmlns="http://www.w3.org/2000/svg" xmlns:xlink="http://www.w3.org/1999/xlink" xml:space="preserve" xmlns:serif="http://www.serif.com/" style="fill-rule:evenodd;clip-rule:evenodd;stroke-linejoin:round;stroke-miterlimit:2;"><g><g><clipPath id="_clip1"><rect x="6.75" y="15.589" width="110.5" height="86.821"/></clipPath><g clip-path="url(#_clip1)"><path d="M48.188,63.341l-13.812,0c-2.537,0 -4.604,1.945 -4.604,4.341l0,8.682c0,2.396 2.067,4.341 4.604,4.341l13.812,0c2.537,0 4.604,-1.945 4.604,-4.341l0,-8.682c0,-2.396 -2.067,-4.341 -4.604,-4.341Zm50.646,-4.341c-15.231,0 -27.625,-11.682 -27.625,-26.046c0,-3.047 0.585,-5.96 1.611,-8.682l-43.049,0c-12.694,0 -23.021,9.737 -23.021,21.705l0,34.729c0,11.968 10.327,21.705 23.021,21.705l27.625,0l0,8.682l-18.417,0c-2.541,0 -4.604,1.94 -4.604,4.341c0,2.401 2.063,4.341 4.604,4.341l46.042,0c2.541,0 4.604,-1.94 4.604,-4.341c0,-2.401 -2.063,-4.341 -4.604,-4.341l-18.417,0l0,-8.682l27.625,0c12.694,0 23.021,-9.737 23.021,-21.705l0,-28.391c-4.894,4.141 -11.34,6.685 -18.417,6.685Zm-23.021,21.632c0,3.633 -4.397,5.704 -7.482,3.525l-6.722,-4.849c-1.423,5.761 -6.888,10.076 -13.426,10.076l-13.813,0c-7.615,0 -13.812,-5.843 -13.812,-13.023l0,-8.682c0,-7.18 6.197,-13.023 13.812,-13.023l13.813,0c6.547,0 12.012,4.324 13.43,10.097l6.713,-4.749c3.08,-2.179 7.482,-0.104 7.482,3.525l0,17.099l0.005,0.004Z" style="fill:url(#_Linear2);fill-rule:nonzero;"/></g></g></g><g><ellipse cx="98.149" cy="33.767" rx="19.101" ry="17.392" style="fill:url(#_Linear3);"/></g><defs><linearGradient id="_Linear2" x1="0" y1="0" x2="1" y2="0" gradientUnits="userSpaceOnUse" gradientTransform="matrix(110.5,0,0,104.185714,6.75,59)"><stop offset="0" style="stop-color:#008bff;stop-opacity:1"/><stop offset="0.5" style="stop-color:#00a6ff;stop-opacity:1"/><stop offset="1" style="stop-color:#00afff;stop-opacity:1"/></linearGradient><linearGradient id="_Linear3" x1="0" y1="0" x2="1" y2="0" gradientUnits="userSpaceOnUse" gradientTransform="matrix(38.202446,0,0,34.783488,79.047554,33.766734)"><stop offset="0" style="stop-color:#ff001d;stop-opacity:1"/><stop offset="0.54" style="stop-color:#f23525;stop-opacity:1"/><stop offset="1" style="stop-color:#ed4b28;stop-opacity:1"/></linearGradient></defs></svg>