<?xml version="1.0" encoding="UTF-8" standalone="no"?>
<!DOCTYPE svg PUBLIC "-//W3C//DTD SVG 1.1//EN" "http://www.w3.org/Graphics/SVG/1.1/DTD/svg11.dtd">
<svg width="100%" height="100%" viewBox="0 0 308 308" version="1.1" xmlns="http://www.w3.org/2000/svg" xmlns:xlink="http://www.w3.org/1999/xlink" xml:space="preserve" xmlns:serif="http://www.serif.com/" style="fill-rule:evenodd;clip-rule:evenodd;stroke-linejoin:round;stroke-miterlimit:2;">
    <g transform="matrix(1.333333,0,0,1.333333,0.080007,0)">
        <clipPath id="_clip1">
            <rect x="0.059" y="0.117" width="229.402" height="229.406"/>
        </clipPath>
        <g clip-path="url(#_clip1)">
            <path d="M181.781,0.117L47.883,0.117C21.512,0.117 0.059,21.574 0.059,47.941L0.059,181.844C0.059,208.211 21.512,229.664 47.883,229.664L181.781,229.664C208.152,229.664 229.602,208.211 229.602,181.844L229.602,47.941C229.602,21.574 208.152,0.117 181.781,0.117ZM52.664,191.406C44.742,191.406 38.316,184.977 38.316,177.059C38.316,169.141 44.742,162.715 52.664,162.715C60.582,162.715 67.012,169.141 67.012,177.059C67.012,184.977 60.582,191.406 52.664,191.406ZM52.664,67.07C44.742,67.07 38.316,60.641 38.316,52.727C38.316,44.805 44.742,38.375 52.664,38.375C60.582,38.375 67.012,44.805 67.012,52.727C67.012,60.641 60.582,67.07 52.664,67.07ZM114.832,181.844C106.914,181.844 100.484,175.414 100.484,167.496C100.484,159.578 106.914,153.148 114.832,153.148C122.75,153.148 129.18,159.578 129.18,167.496C129.18,175.414 122.75,181.844 114.832,181.844ZM133.289,119.719C128.305,122.465 124.398,128.75 124.398,134.02C124.398,139.293 120.121,143.586 114.832,143.586C109.543,143.586 105.266,139.309 105.266,134.02C105.266,121.836 112.996,109.066 124.043,102.965C132.113,98.52 137.262,87.891 131.484,76.168C130.098,73.344 127.688,70.934 124.863,69.547C115.387,64.891 108.195,67.797 104.738,69.941C99.078,73.469 95.703,79.543 95.703,86.199C95.703,91.488 91.426,95.766 86.141,95.766C80.852,95.766 76.574,91.488 76.574,86.199C76.574,72.883 83.328,60.738 94.645,53.699C106.242,46.469 120.352,46 133.301,52.379C139.93,55.641 145.391,61.082 148.652,67.723C158.254,87.234 151.645,109.586 133.289,119.719ZM177,191.406C169.078,191.406 162.656,184.977 162.656,177.059C162.656,169.141 169.078,162.715 177,162.715C184.918,162.715 191.344,169.141 191.344,177.059C191.344,184.977 184.918,191.406 177,191.406ZM177,67.07C169.078,67.07 162.656,60.641 162.656,52.727C162.656,44.805 169.078,38.375 177,38.375C184.918,38.375 191.344,44.805 191.344,52.727C191.344,60.641 184.918,67.07 177,67.07Z" style="fill:url(#_Linear2);fill-rule:nonzero;"/>
        </g>
    </g>
    <defs>
        <linearGradient id="_Linear2" x1="0" y1="0" x2="1" y2="0" gradientUnits="userSpaceOnUse" gradientTransform="matrix(229.542968,0,0,229.546874,0.058594,114.890625)"><stop offset="0" style="stop-color:rgb(255,87,87);stop-opacity:1"/><stop offset="1" style="stop-color:rgb(255,0,110);stop-opacity:1"/></linearGradient>
    </defs>
</svg>
