<?xml version="1.0" encoding="UTF-8" standalone="no"?>
<!DOCTYPE svg PUBLIC "-//W3C//DTD SVG 1.1//EN" "http://www.w3.org/Graphics/SVG/1.1/DTD/svg11.dtd">
<svg width="100%" height="100%" viewBox="0 0 427 512" version="1.1" xmlns="http://www.w3.org/2000/svg" xmlns:xlink="http://www.w3.org/1999/xlink" xml:space="preserve" xmlns:serif="http://www.serif.com/" style="fill-rule:evenodd;clip-rule:evenodd;stroke-linejoin:round;stroke-miterlimit:2;">
    <g transform="matrix(1,0,0,1,-42.666667,0)">
        <g transform="matrix(21.333333,0,0,21.333333,0,0)">
            <path d="M14,7L14,0.46C14.925,0.809 15.765,1.351 16.465,2.05L19.949,5.536C20.648,6.235 21.191,7.075 21.54,8L15,8C14.451,8 14,7.549 14,7ZM22,10.485L22,19C21.997,21.742 19.742,23.997 17,24L7,24C4.258,23.997 2.003,21.742 2,19L2,5C2.003,2.258 4.258,0.003 7,0L11.515,0C11.678,0 11.839,0.013 12,0.024L12,7C12,8.646 13.354,10 15,10L21.976,10C21.987,10.161 22,10.322 22,10.485ZM14,19C14,18.451 13.549,18 13,18L8,18C7.451,18 7,18.451 7,19C7,19.549 7.451,20 8,20L13,20C13.549,20 14,19.549 14,19ZM17,15C17,14.451 16.549,14 16,14L8,14C7.451,14 7,14.451 7,15C7,15.549 7.451,16 8,16L16,16C16.549,16 17,15.549 17,15Z" style="fill:url(#_Linear1);fill-rule:nonzero;"/>
        </g>
    </g>
    <defs>
        <linearGradient id="_Linear1" x1="0" y1="0" x2="1" y2="0" gradientUnits="userSpaceOnUse" gradientTransform="matrix(20,0,0,24,2,12)"><stop offset="0" style="stop-color:rgb(0,142,251);stop-opacity:1"/><stop offset="1" style="stop-color:rgb(0,101,255);stop-opacity:1"/></linearGradient>
    </defs>
</svg>
