<?xml version="1.0" encoding="UTF-8" standalone="no"?>
<!DOCTYPE svg PUBLIC "-//W3C//DTD SVG 1.1//EN" "http://www.w3.org/Graphics/SVG/1.1/DTD/svg11.dtd">
<svg width="100%" height="100%" viewBox="0 0 256 308" version="1.1" xmlns="http://www.w3.org/2000/svg" xmlns:xlink="http://www.w3.org/1999/xlink" xml:space="preserve" xmlns:serif="http://www.serif.com/" style="fill-rule:evenodd;clip-rule:evenodd;stroke-linejoin:round;stroke-miterlimit:2;">
    <g transform="matrix(1,0,0,1,-25.66334,-0.260416)">
        <g transform="matrix(1.333333,0,0,1.333333,0.080007,0)">
            <path d="M134.324,67.367L134.324,4.609C143.086,7.926 151.145,13.043 157.977,19.863L191.402,53.309C198.234,60.133 203.348,68.191 206.668,76.953L143.918,76.953C138.625,76.953 134.324,72.645 134.324,67.355L134.324,67.367ZM210.852,96.148L143.918,96.148C128.051,96.148 115.137,83.234 115.137,67.367L115.137,0.426C113.59,0.32 112.047,0.195 110.48,0.195L67.164,0.195C40.711,0.203 19.188,21.727 19.188,48.176L19.188,182.5C19.188,208.953 40.711,230.477 67.164,230.477L163.109,230.477C189.562,230.477 211.082,208.953 211.082,182.5L211.082,100.805C211.082,99.238 210.957,97.695 210.852,96.148ZM150.703,162.16C148.832,164.031 146.375,164.973 143.918,164.973C141.465,164.973 139.008,164.031 137.137,162.16L124.73,149.754L124.73,191.953C124.73,197.25 120.434,201.547 115.137,201.547C109.84,201.547 105.539,197.25 105.539,191.953L105.539,149.754L93.137,162.16C89.383,165.914 83.32,165.914 79.566,162.16C75.816,158.41 75.816,152.348 79.566,148.594L95.055,133.109C106.125,122.035 124.145,122.035 135.227,133.109L150.711,148.594C154.465,152.348 154.465,158.41 150.711,162.16L150.703,162.16Z" style="fill:url(#_Linear1);fill-rule:nonzero;"/>
        </g>
    </g>
    <defs>
        <linearGradient id="_Linear1" x1="0" y1="0" x2="1" y2="0" gradientUnits="userSpaceOnUse" gradientTransform="matrix(191.894531,0,0,230.28125,19.1875,115.335937)"><stop offset="0" style="stop-color:rgb(255,0,68);stop-opacity:1"/><stop offset="1" style="stop-color:rgb(249,0,134);stop-opacity:1"/></linearGradient>
    </defs>
</svg>
