<?xml version="1.0" encoding="UTF-8" standalone="no"?>
<!DOCTYPE svg PUBLIC "-//W3C//DTD SVG 1.1//EN" "http://www.w3.org/Graphics/SVG/1.1/DTD/svg11.dtd">
<svg width="100%" height="100%" viewBox="0 0 308 308" version="1.1" xmlns="http://www.w3.org/2000/svg" xmlns:xlink="http://www.w3.org/1999/xlink" xml:space="preserve" xmlns:serif="http://www.serif.com/" style="fill-rule:evenodd;clip-rule:evenodd;stroke-linejoin:round;stroke-miterlimit:2;">
    <g transform="matrix(1.333333,0,0,1.333333,0.080007,0)">
        <clipPath id="_clip1">
            <rect x="19" y="0.059" width="211.129" height="230.133"/>
        </clipPath>
        <g clip-path="url(#_clip1)">
            <path d="M105.539,167.965C105.543,166.449 105.598,164.934 105.711,163.422C105.824,161.906 105.992,160.398 106.211,158.898C106.434,157.398 106.711,155.906 107.043,154.426C107.371,152.945 107.758,151.48 108.195,150.027C108.633,148.574 109.125,147.141 109.664,145.723C110.207,144.305 110.801,142.91 111.445,141.535C112.09,140.164 112.785,138.816 113.527,137.492C114.27,136.168 115.062,134.875 115.898,133.609C116.734,132.344 117.617,131.113 118.543,129.91C119.473,128.711 120.441,127.543 121.453,126.414C122.469,125.285 123.52,124.191 124.609,123.141C125.703,122.086 126.832,121.074 128,120.102C129.164,119.133 130.363,118.203 131.598,117.32C132.832,116.438 134.094,115.602 135.391,114.809C136.684,114.02 138.008,113.277 139.355,112.582C140.703,111.887 142.078,111.242 143.473,110.648C144.867,110.055 146.285,109.512 147.719,109.02C149.156,108.527 150.605,108.09 152.074,107.707C153.543,107.32 155.023,106.988 156.512,106.711C158.004,106.434 159.504,106.211 161.012,106.043C162.52,105.875 164.031,105.766 165.551,105.707C167.066,105.648 168.582,105.648 170.098,105.699C171.613,105.754 173.125,105.863 174.637,106.027C176.145,106.191 177.645,106.41 179.137,106.684C180.629,106.953 182.109,107.281 183.578,107.664C185.047,108.043 186.5,108.48 187.938,108.965C189.371,109.453 190.789,109.992 192.188,110.582C193.586,111.176 194.957,111.816 196.309,112.508C197.66,113.195 198.984,113.938 200.281,114.723C201.578,115.512 202.844,116.344 204.078,117.227C205.316,118.105 206.52,119.031 207.688,119.996C208.855,120.965 209.988,121.973 211.082,123.023L211.082,28.844C211.082,27.902 211.035,26.961 210.941,26.023C210.852,25.086 210.711,24.152 210.527,23.227C210.344,22.305 210.117,21.391 209.844,20.488C209.57,19.586 209.25,18.699 208.891,17.828C208.531,16.957 208.129,16.105 207.684,15.273C207.238,14.445 206.754,13.637 206.23,12.852C205.707,12.07 205.145,11.312 204.547,10.582C203.949,9.855 203.316,9.156 202.652,8.492C201.984,7.824 201.285,7.191 200.559,6.594C199.828,5.996 199.074,5.434 198.289,4.91C197.504,4.387 196.699,3.902 195.867,3.457C195.035,3.016 194.184,2.613 193.312,2.25C192.441,1.891 191.555,1.574 190.652,1.301C189.75,1.027 188.836,0.797 187.914,0.613C186.988,0.43 186.059,0.293 185.121,0.199C184.18,0.105 183.242,0.059 182.297,0.059L67.164,0.059C65.59,0.062 64.023,0.141 62.461,0.297C60.898,0.453 59.348,0.684 57.809,0.992C56.266,1.301 54.746,1.68 53.242,2.137C51.738,2.594 50.262,3.125 48.812,3.727C47.363,4.328 45.945,5 44.559,5.742C43.176,6.484 41.828,7.289 40.523,8.164C39.219,9.035 37.957,9.969 36.742,10.969C35.531,11.965 34.367,13.016 33.258,14.129C32.145,15.238 31.094,16.402 30.098,17.613C29.102,18.828 28.164,20.09 27.293,21.395C26.418,22.699 25.613,24.047 24.871,25.43C24.129,26.816 23.457,28.234 22.855,29.684C22.254,31.133 21.727,32.609 21.27,34.113C20.812,35.617 20.43,37.137 20.121,38.68C19.812,40.219 19.582,41.77 19.426,43.332C19.27,44.895 19.191,46.461 19.188,48.031L19.188,182.359C19.191,183.93 19.27,185.496 19.426,187.059C19.582,188.621 19.812,190.172 20.121,191.715C20.43,193.254 20.812,194.773 21.27,196.277C21.727,197.781 22.254,199.258 22.855,200.707C23.457,202.156 24.129,203.574 24.871,204.961C25.613,206.344 26.418,207.691 27.293,208.996C28.164,210.301 29.102,211.562 30.098,212.777C31.094,213.988 32.145,215.152 33.258,216.262C34.367,217.375 35.531,218.426 36.742,219.426C37.957,220.422 39.219,221.355 40.523,222.227C41.828,223.102 43.176,223.91 44.559,224.648C45.945,225.391 47.363,226.062 48.812,226.664C50.262,227.266 51.738,227.797 53.242,228.254C54.746,228.711 56.266,229.094 57.809,229.398C59.348,229.707 60.898,229.938 62.461,230.094C64.023,230.25 65.59,230.328 67.164,230.332L167.906,230.332C165.863,230.332 163.824,230.23 161.793,230.031C159.762,229.832 157.742,229.531 155.738,229.133C153.734,228.734 151.758,228.238 149.801,227.645C147.848,227.051 145.926,226.367 144.039,225.582C142.152,224.801 140.309,223.93 138.508,222.969C136.707,222.004 134.957,220.957 133.258,219.82C131.559,218.688 129.922,217.469 128.344,216.176C126.762,214.879 125.25,213.508 123.809,212.066C122.363,210.621 120.992,209.109 119.695,207.531C118.402,205.949 117.188,204.312 116.051,202.613C114.918,200.914 113.867,199.164 112.906,197.363C111.941,195.562 111.07,193.719 110.289,191.832C109.508,189.945 108.82,188.023 108.227,186.07C107.633,184.113 107.137,182.137 106.738,180.133C106.34,178.129 106.043,176.113 105.84,174.078C105.641,172.047 105.539,170.008 105.539,167.965ZM67.164,67.223C67.164,66.594 67.223,65.969 67.348,65.352C67.469,64.734 67.652,64.133 67.895,63.551C68.133,62.969 68.43,62.414 68.781,61.891C69.129,61.367 69.527,60.883 69.973,60.438C70.418,59.992 70.902,59.594 71.426,59.246C71.949,58.895 72.504,58.598 73.086,58.359C73.668,58.117 74.266,57.934 74.887,57.812C75.504,57.688 76.129,57.629 76.758,57.629L153.516,57.629C154.145,57.629 154.77,57.688 155.387,57.812C156.004,57.934 156.605,58.117 157.188,58.359C157.77,58.598 158.32,58.895 158.844,59.246C159.367,59.594 159.852,59.992 160.297,60.438C160.742,60.883 161.141,61.367 161.492,61.891C161.84,62.414 162.137,62.969 162.379,63.551C162.621,64.133 162.801,64.734 162.926,65.352C163.047,65.969 163.109,66.594 163.109,67.223C163.109,67.852 163.047,68.477 162.926,69.094C162.801,69.711 162.621,70.312 162.379,70.895C162.137,71.477 161.84,72.027 161.492,72.555C161.141,73.078 160.742,73.562 160.297,74.008C159.852,74.453 159.367,74.852 158.844,75.199C158.32,75.551 157.77,75.844 157.188,76.086C156.605,76.328 156.004,76.508 155.387,76.633C154.77,76.754 154.145,76.816 153.516,76.816L76.758,76.816C76.129,76.816 75.504,76.754 74.887,76.633C74.266,76.508 73.668,76.328 73.086,76.086C72.504,75.844 71.949,75.551 71.426,75.199C70.902,74.852 70.418,74.453 69.973,74.008C69.527,73.562 69.129,73.078 68.781,72.555C68.43,72.027 68.133,71.477 67.895,70.895C67.652,70.312 67.469,69.711 67.348,69.094C67.223,68.477 67.164,67.852 67.164,67.223ZM227.461,227.52C227.016,227.965 226.531,228.363 226.008,228.711C225.48,229.062 224.93,229.359 224.348,229.598C223.766,229.84 223.164,230.023 222.547,230.145C221.93,230.266 221.305,230.328 220.676,230.328C220.047,230.328 219.422,230.266 218.805,230.145C218.188,230.023 217.586,229.84 217.004,229.598C216.422,229.359 215.871,229.062 215.348,228.711C214.824,228.363 214.34,227.965 213.895,227.52L190.797,204.426C187.379,206.609 183.723,208.27 179.832,209.414C175.938,210.555 171.961,211.133 167.906,211.141C166.492,211.141 165.082,211.074 163.676,210.934C162.266,210.797 160.871,210.59 159.484,210.312C158.098,210.035 156.727,209.691 155.371,209.281C154.02,208.871 152.691,208.395 151.383,207.855C150.078,207.312 148.801,206.711 147.555,206.043C146.305,205.379 145.094,204.652 143.918,203.867C142.742,203.078 141.609,202.238 140.516,201.34C139.422,200.445 138.375,199.496 137.375,198.496C136.375,197.496 135.426,196.449 134.531,195.355C133.633,194.262 132.793,193.129 132.008,191.953C131.223,190.777 130.496,189.566 129.828,188.32C129.16,187.07 128.559,185.797 128.016,184.488C127.477,183.184 127,181.852 126.59,180.5C126.18,179.145 125.836,177.777 125.559,176.391C125.285,175.004 125.078,173.605 124.938,172.199C124.801,170.789 124.73,169.379 124.73,167.965C124.73,166.551 124.801,165.141 124.938,163.734C125.078,162.328 125.285,160.93 125.559,159.543C125.836,158.156 126.18,156.785 126.59,155.434C127,154.078 127.477,152.75 128.016,151.441C128.559,150.137 129.16,148.859 129.828,147.613C130.496,146.367 131.223,145.156 132.008,143.98C132.793,142.805 133.633,141.668 134.531,140.574C135.426,139.48 136.375,138.438 137.375,137.438C138.375,136.438 139.422,135.488 140.516,134.59C141.609,133.695 142.742,132.852 143.918,132.066C145.094,131.281 146.305,130.555 147.555,129.887C148.801,129.223 150.078,128.617 151.383,128.078C152.691,127.535 154.02,127.059 155.371,126.648C156.727,126.238 158.098,125.895 159.484,125.621C160.871,125.344 162.266,125.137 163.676,124.996C165.082,124.859 166.492,124.789 167.906,124.789C169.32,124.789 170.73,124.859 172.137,124.996C173.547,125.137 174.941,125.344 176.328,125.621C177.715,125.895 179.086,126.238 180.438,126.648C181.793,127.059 183.121,127.535 184.43,128.078C185.734,128.617 187.012,129.223 188.258,129.887C189.508,130.555 190.719,131.281 191.895,132.066C193.07,132.852 194.203,133.695 195.297,134.59C196.391,135.488 197.438,136.438 198.438,137.438C199.438,138.438 200.383,139.48 201.281,140.574C202.18,141.668 203.02,142.805 203.805,143.98C204.59,145.156 205.316,146.367 205.984,147.613C206.648,148.859 207.254,150.137 207.797,151.441C208.336,152.75 208.812,154.078 209.223,155.434C209.633,156.785 209.977,158.156 210.254,159.543C210.527,160.93 210.734,162.328 210.875,163.734C211.012,165.141 211.082,166.551 211.082,167.965C211.07,172.023 210.496,175.996 209.352,179.891C208.211,183.781 206.547,187.438 204.367,190.859L227.461,213.953C227.906,214.398 228.301,214.883 228.652,215.406C229.004,215.93 229.297,216.484 229.539,217.066C229.781,217.648 229.961,218.246 230.086,218.863C230.207,219.484 230.27,220.105 230.27,220.738C230.27,221.367 230.207,221.988 230.086,222.609C229.961,223.227 229.781,223.824 229.539,224.406C229.297,224.988 229.004,225.543 228.652,226.066C228.301,226.59 227.906,227.074 227.461,227.52Z" style="fill:url(#_Linear2);fill-rule:nonzero;"/>
        </g>
    </g>
    <defs>
        <linearGradient id="_Linear2" x1="0" y1="0" x2="1" y2="0" gradientUnits="userSpaceOnUse" gradientTransform="matrix(211.082031,0,0,230.273437,19.1875,115.195312)"><stop offset="0" style="stop-color:rgb(0,221,255);stop-opacity:1"/><stop offset="1" style="stop-color:rgb(3,153,173);stop-opacity:1"/></linearGradient>
    </defs>
</svg>
