<?xml version="1.0" encoding="UTF-8" standalone="no"?>
<!DOCTYPE svg PUBLIC "-//W3C//DTD SVG 1.1//EN" "http://www.w3.org/Graphics/SVG/1.1/DTD/svg11.dtd">
<svg width="100%" height="100%" viewBox="0 0 308 282" version="1.1" xmlns="http://www.w3.org/2000/svg" xmlns:xlink="http://www.w3.org/1999/xlink" xml:space="preserve" xmlns:serif="http://www.serif.com/" style="fill-rule:evenodd;clip-rule:evenodd;stroke-linejoin:round;stroke-miterlimit:2;">
    <g transform="matrix(1,0,0,1,-0.080007,-12.875886)">
        <g transform="matrix(1.333333,0,0,1.333333,0.080007,0)">
            <g>
                <clipPath id="_clip1">
                    <rect x="0" y="9" width="230.129" height="212"/>
                </clipPath>
                <g clip-path="url(#_clip1)">
                    <path d="M213,20.812C211.637,19.676 210.215,18.617 208.734,17.637C207.254,16.66 205.723,15.766 204.145,14.953C202.562,14.145 200.945,13.426 199.285,12.797C197.625,12.164 195.934,11.629 194.215,11.188C192.496,10.746 190.758,10.398 189,10.148C187.242,9.902 185.477,9.75 183.699,9.695C181.926,9.645 180.152,9.688 178.383,9.832C176.613,9.977 174.859,10.219 173.117,10.555L156.191,14.703C155.098,14.902 154.016,15.148 152.941,15.445C151.871,15.738 150.812,16.078 149.77,16.465C148.727,16.852 147.703,17.281 146.699,17.758C145.695,18.234 144.711,18.75 143.75,19.312C142.793,19.871 141.855,20.473 140.949,21.117C140.043,21.758 139.164,22.438 138.316,23.156C137.465,23.875 136.648,24.629 135.867,25.418C135.086,26.207 134.336,27.027 133.625,27.883C132.914,28.738 132.238,29.621 131.605,30.531C130.969,31.445 130.375,32.383 129.82,33.348C129.27,34.312 128.758,35.301 128.289,36.309C127.824,37.316 127.398,38.344 127.02,39.391C126.645,40.434 126.312,41.496 126.023,42.57C125.738,43.645 125.5,44.727 125.309,45.824C125.113,46.918 124.969,48.02 124.875,49.129C124.777,50.234 124.73,51.344 124.73,52.457L124.73,200.855C118.332,201.793 111.938,201.793 105.539,200.855L105.539,52.457C105.543,51.355 105.5,50.254 105.41,49.156C105.32,48.059 105.18,46.969 104.996,45.883C104.809,44.797 104.578,43.719 104.297,42.652C104.02,41.586 103.695,40.535 103.324,39.5C102.957,38.461 102.543,37.441 102.082,36.438C101.625,35.438 101.125,34.457 100.582,33.496C100.039,32.539 99.457,31.605 98.832,30.699C98.207,29.789 97.547,28.91 96.848,28.059C96.148,27.207 95.414,26.391 94.641,25.602C93.871,24.812 93.066,24.062 92.23,23.344C91.395,22.625 90.531,21.945 89.637,21.305C88.742,20.66 87.82,20.059 86.875,19.492C85.926,18.93 84.957,18.41 83.965,17.93C82.977,17.449 81.965,17.016 80.934,16.621C79.906,16.23 78.859,15.883 77.801,15.582C76.742,15.281 75.672,15.027 74.59,14.816L56.609,10.441C55.746,10.285 54.883,10.148 54.012,10.039C53.145,9.93 52.273,9.844 51.402,9.781C50.527,9.719 49.652,9.68 48.777,9.664C47.902,9.648 47.027,9.66 46.152,9.691C45.277,9.727 44.402,9.781 43.531,9.863C42.66,9.945 41.789,10.051 40.926,10.18C40.059,10.309 39.195,10.461 38.34,10.637C37.48,10.812 36.629,11.012 35.781,11.234C34.934,11.457 34.094,11.699 33.262,11.969C32.43,12.238 31.602,12.527 30.785,12.844C29.969,13.156 29.16,13.492 28.359,13.852C27.562,14.207 26.773,14.586 25.996,14.988C25.215,15.391 24.449,15.812 23.695,16.254C22.938,16.699 22.195,17.16 21.469,17.645C20.738,18.129 20.02,18.633 19.32,19.156C18.617,19.68 17.93,20.219 17.258,20.781C16.586,21.34 15.926,21.922 15.285,22.516C14.645,23.113 14.02,23.727 13.414,24.359C12.809,24.988 12.219,25.637 11.645,26.297C11.074,26.961 10.52,27.641 9.984,28.332C9.449,29.027 8.934,29.734 8.438,30.457C7.945,31.176 7.469,31.91 7.012,32.66C6.555,33.406 6.121,34.168 5.707,34.938C5.293,35.711 4.898,36.492 4.527,37.285C4.156,38.078 3.809,38.879 3.48,39.691C3.152,40.504 2.848,41.324 2.566,42.152C2.281,42.98 2.023,43.816 1.785,44.66C1.551,45.504 1.336,46.352 1.145,47.207C0.957,48.062 0.789,48.922 0.645,49.785C0.504,50.648 0.383,51.516 0.289,52.387C0.191,53.258 0.121,54.129 0.07,55.004C0.023,55.879 0,56.754 0,57.629L0,161.184C0,162.574 0.059,163.961 0.18,165.348C0.301,166.734 0.484,168.109 0.723,169.48C0.965,170.852 1.266,172.207 1.621,173.551C1.98,174.895 2.398,176.219 2.871,177.527C3.344,178.836 3.875,180.121 4.461,181.383C5.047,182.645 5.688,183.879 6.379,185.082C7.07,186.289 7.816,187.461 8.609,188.605C9.406,189.746 10.25,190.852 11.141,191.918C12.031,192.984 12.969,194.012 13.949,195C14.93,195.984 15.949,196.926 17.012,197.824C18.074,198.723 19.176,199.574 20.312,200.375C21.445,201.176 22.617,201.93 23.816,202.629C25.02,203.328 26.25,203.977 27.508,204.57C28.766,205.16 30.047,205.699 31.352,206.184C32.656,206.664 33.98,207.09 35.32,207.453C36.664,207.82 38.016,208.129 39.387,208.379L99.699,219.344C109.988,221.215 120.281,221.215 130.574,219.344L190.934,208.379C192.301,208.129 193.652,207.82 194.996,207.453C196.336,207.082 197.656,206.656 198.961,206.176C200.266,205.691 201.543,205.152 202.801,204.559C204.059,203.965 205.285,203.316 206.488,202.617C207.688,201.918 208.855,201.164 209.988,200.363C211.125,199.559 212.223,198.711 213.285,197.812C214.344,196.914 215.367,195.973 216.344,194.984C217.324,194 218.258,192.973 219.148,191.902C220.039,190.836 220.879,189.73 221.676,188.59C222.469,187.449 223.211,186.277 223.902,185.07C224.594,183.867 225.234,182.633 225.82,181.371C226.402,180.109 226.934,178.828 227.406,177.52C227.879,176.211 228.293,174.887 228.652,173.543C229.012,172.199 229.309,170.844 229.551,169.477C229.789,168.105 229.969,166.73 230.09,165.344C230.211,163.961 230.27,162.574 230.27,161.184L230.27,57.629C230.273,54.113 229.891,50.641 229.129,47.211C228.367,43.781 227.238,40.473 225.746,37.293C224.254,34.109 222.43,31.129 220.281,28.352C218.133,25.57 215.703,23.059 213,20.812Z" style="fill:url(#_Linear2);fill-rule:nonzero;"/>
                </g>
            </g>
        </g>
    </g>
    <defs>
        <linearGradient id="_Linear2" x1="0" y1="0" x2="1" y2="0" gradientUnits="userSpaceOnUse" gradientTransform="matrix(230.269561,0,0,230.269561,0,115.202121)"><stop offset="0" style="stop-color:rgb(2,192,255);stop-opacity:1"/><stop offset="1" style="stop-color:rgb(0,89,255);stop-opacity:1"/></linearGradient>
    </defs>
</svg>
