<svg xmlns="http://www.w3.org/2000/svg" xmlns:xlink="http://www.w3.org/1999/xlink" width="308" zoomAndPan="magnify" viewBox="0 0 230.87999 231" height="308" preserveAspectRatio="xMidYMid meet" version="1.0"><defs><clipPath id="a7052f6aa2"><path d="M 19 0.0585938 L 230.128906 0.0585938 L 230.128906 230.191406 L 19 230.191406 Z M 19 0.0585938 " clip-rule="nonzero"/></clipPath></defs><g clip-path="url(#a7052f6aa2)"><path fill="#0399ad" d="M 105.539062 167.964844 C 105.542969 166.449219 105.597656 164.933594 105.710938 163.421875 C 105.824219 161.90625 105.992188 160.398438 106.210938 158.898438 C 106.433594 157.398438 106.710938 155.90625 107.042969 154.425781 C 107.371094 152.945312 107.757812 151.480469 108.195312 150.027344 C 108.632812 148.574219 109.125 147.140625 109.664062 145.722656 C 110.207031 144.304688 110.800781 142.910156 111.445312 141.535156 C 112.089844 140.164062 112.785156 138.816406 113.527344 137.492188 C 114.269531 136.167969 115.0625 134.875 115.898438 133.609375 C 116.734375 132.34375 117.617188 131.113281 118.542969 129.910156 C 119.472656 128.710938 120.441406 127.542969 121.453125 126.414062 C 122.46875 125.285156 123.519531 124.191406 124.609375 123.140625 C 125.703125 122.085938 126.832031 121.074219 128 120.101562 C 129.164062 119.132812 130.363281 118.203125 131.597656 117.320312 C 132.832031 116.4375 134.09375 115.601562 135.390625 114.808594 C 136.683594 114.019531 138.007812 113.277344 139.355469 112.582031 C 140.703125 111.886719 142.078125 111.242188 143.472656 110.648438 C 144.867188 110.054688 146.285156 109.511719 147.71875 109.019531 C 149.15625 108.527344 150.605469 108.089844 152.074219 107.707031 C 153.542969 107.320312 155.023438 106.988281 156.511719 106.710938 C 158.003906 106.433594 159.503906 106.210938 161.011719 106.042969 C 162.519531 105.875 164.03125 105.765625 165.550781 105.707031 C 167.066406 105.648438 168.582031 105.648438 170.097656 105.699219 C 171.613281 105.753906 173.125 105.863281 174.636719 106.027344 C 176.144531 106.191406 177.644531 106.410156 179.136719 106.683594 C 180.628906 106.953125 182.109375 107.28125 183.578125 107.664062 C 185.046875 108.042969 186.5 108.480469 187.9375 108.964844 C 189.371094 109.453125 190.789062 109.992188 192.1875 110.582031 C 193.585938 111.175781 194.957031 111.816406 196.308594 112.507812 C 197.660156 113.195312 198.984375 113.9375 200.28125 114.722656 C 201.578125 115.511719 202.84375 116.34375 204.078125 117.226562 C 205.316406 118.105469 206.519531 119.03125 207.6875 119.996094 C 208.855469 120.964844 209.988281 121.972656 211.082031 123.023438 L 211.082031 28.84375 C 211.082031 27.902344 211.035156 26.960938 210.941406 26.023438 C 210.851562 25.085938 210.710938 24.152344 210.527344 23.226562 C 210.34375 22.304688 210.117188 21.390625 209.84375 20.488281 C 209.570312 19.585938 209.25 18.699219 208.890625 17.828125 C 208.53125 16.957031 208.128906 16.105469 207.683594 15.273438 C 207.238281 14.445312 206.753906 13.636719 206.230469 12.851562 C 205.707031 12.070312 205.144531 11.3125 204.546875 10.582031 C 203.949219 9.855469 203.316406 9.15625 202.652344 8.492188 C 201.984375 7.824219 201.285156 7.191406 200.558594 6.59375 C 199.828125 5.996094 199.074219 5.433594 198.289062 4.910156 C 197.503906 4.386719 196.699219 3.902344 195.867188 3.457031 C 195.035156 3.015625 194.183594 2.613281 193.3125 2.25 C 192.441406 1.890625 191.554688 1.574219 190.652344 1.300781 C 189.75 1.027344 188.835938 0.796875 187.914062 0.613281 C 186.988281 0.429688 186.058594 0.292969 185.121094 0.199219 C 184.179688 0.105469 183.242188 0.0585938 182.296875 0.0585938 L 67.164062 0.0585938 C 65.589844 0.0625 64.023438 0.140625 62.460938 0.296875 C 60.898438 0.453125 59.347656 0.683594 57.808594 0.992188 C 56.265625 1.300781 54.746094 1.679688 53.242188 2.136719 C 51.738281 2.59375 50.261719 3.125 48.8125 3.726562 C 47.363281 4.328125 45.945312 5 44.558594 5.742188 C 43.175781 6.484375 41.828125 7.289062 40.523438 8.164062 C 39.21875 9.035156 37.957031 9.96875 36.742188 10.96875 C 35.53125 11.964844 34.367188 13.015625 33.257812 14.128906 C 32.144531 15.238281 31.09375 16.402344 30.097656 17.613281 C 29.101562 18.828125 28.164062 20.089844 27.292969 21.394531 C 26.417969 22.699219 25.613281 24.046875 24.871094 25.429688 C 24.128906 26.816406 23.457031 28.234375 22.855469 29.683594 C 22.253906 31.132812 21.726562 32.609375 21.269531 34.113281 C 20.8125 35.617188 20.429688 37.136719 20.121094 38.679688 C 19.8125 40.21875 19.582031 41.769531 19.425781 43.332031 C 19.269531 44.894531 19.191406 46.460938 19.1875 48.03125 L 19.1875 182.359375 C 19.191406 183.929688 19.269531 185.496094 19.425781 187.058594 C 19.582031 188.621094 19.8125 190.171875 20.121094 191.714844 C 20.429688 193.253906 20.8125 194.773438 21.269531 196.277344 C 21.726562 197.78125 22.253906 199.257812 22.855469 200.707031 C 23.457031 202.15625 24.128906 203.574219 24.871094 204.960938 C 25.613281 206.34375 26.417969 207.691406 27.292969 208.996094 C 28.164062 210.300781 29.101562 211.5625 30.097656 212.777344 C 31.09375 213.988281 32.144531 215.152344 33.257812 216.261719 C 34.367188 217.375 35.53125 218.425781 36.742188 219.425781 C 37.957031 220.421875 39.21875 221.355469 40.523438 222.226562 C 41.828125 223.101562 43.175781 223.910156 44.558594 224.648438 C 45.945312 225.390625 47.363281 226.0625 48.8125 226.664062 C 50.261719 227.265625 51.738281 227.796875 53.242188 228.253906 C 54.746094 228.710938 56.265625 229.09375 57.808594 229.398438 C 59.347656 229.707031 60.898438 229.9375 62.460938 230.09375 C 64.023438 230.25 65.589844 230.328125 67.164062 230.332031 L 167.90625 230.332031 C 165.863281 230.332031 163.824219 230.230469 161.792969 230.03125 C 159.761719 229.832031 157.742188 229.53125 155.738281 229.132812 C 153.734375 228.734375 151.757812 228.238281 149.800781 227.644531 C 147.847656 227.050781 145.925781 226.367188 144.039062 225.582031 C 142.152344 224.800781 140.308594 223.929688 138.507812 222.96875 C 136.707031 222.003906 134.957031 220.957031 133.257812 219.820312 C 131.558594 218.6875 129.921875 217.46875 128.34375 216.175781 C 126.761719 214.878906 125.25 213.507812 123.808594 212.066406 C 122.363281 210.621094 120.992188 209.109375 119.695312 207.53125 C 118.402344 205.949219 117.1875 204.3125 116.050781 202.613281 C 114.917969 200.914062 113.867188 199.164062 112.90625 197.363281 C 111.941406 195.5625 111.070312 193.71875 110.289062 191.832031 C 109.507812 189.945312 108.820312 188.023438 108.226562 186.070312 C 107.632812 184.113281 107.136719 182.136719 106.738281 180.132812 C 106.339844 178.128906 106.042969 176.113281 105.839844 174.078125 C 105.640625 172.046875 105.539062 170.007812 105.539062 167.964844 Z M 67.164062 67.222656 C 67.164062 66.59375 67.222656 65.96875 67.347656 65.351562 C 67.46875 64.734375 67.652344 64.132812 67.894531 63.550781 C 68.132812 62.96875 68.429688 62.414062 68.78125 61.890625 C 69.128906 61.367188 69.527344 60.882812 69.972656 60.4375 C 70.417969 59.992188 70.902344 59.59375 71.425781 59.246094 C 71.949219 58.894531 72.503906 58.597656 73.085938 58.359375 C 73.667969 58.117188 74.265625 57.933594 74.886719 57.8125 C 75.503906 57.6875 76.128906 57.628906 76.757812 57.628906 L 153.515625 57.628906 C 154.144531 57.628906 154.769531 57.6875 155.386719 57.8125 C 156.003906 57.933594 156.605469 58.117188 157.1875 58.359375 C 157.769531 58.597656 158.320312 58.894531 158.84375 59.246094 C 159.367188 59.59375 159.851562 59.992188 160.296875 60.4375 C 160.742188 60.882812 161.140625 61.367188 161.492188 61.890625 C 161.839844 62.414062 162.136719 62.96875 162.378906 63.550781 C 162.621094 64.132812 162.800781 64.734375 162.925781 65.351562 C 163.046875 65.96875 163.109375 66.59375 163.109375 67.222656 C 163.109375 67.851562 163.046875 68.476562 162.925781 69.09375 C 162.800781 69.710938 162.621094 70.3125 162.378906 70.894531 C 162.136719 71.476562 161.839844 72.027344 161.492188 72.554688 C 161.140625 73.078125 160.742188 73.5625 160.296875 74.007812 C 159.851562 74.453125 159.367188 74.851562 158.84375 75.199219 C 158.320312 75.550781 157.769531 75.84375 157.1875 76.085938 C 156.605469 76.328125 156.003906 76.507812 155.386719 76.632812 C 154.769531 76.753906 154.144531 76.816406 153.515625 76.816406 L 76.757812 76.816406 C 76.128906 76.816406 75.503906 76.753906 74.886719 76.632812 C 74.265625 76.507812 73.667969 76.328125 73.085938 76.085938 C 72.503906 75.84375 71.949219 75.550781 71.425781 75.199219 C 70.902344 74.851562 70.417969 74.453125 69.972656 74.007812 C 69.527344 73.5625 69.128906 73.078125 68.78125 72.554688 C 68.429688 72.027344 68.132812 71.476562 67.894531 70.894531 C 67.652344 70.3125 67.46875 69.710938 67.347656 69.09375 C 67.222656 68.476562 67.164062 67.851562 67.164062 67.222656 Z M 227.460938 227.519531 C 227.015625 227.964844 226.53125 228.363281 226.007812 228.710938 C 225.480469 229.0625 224.929688 229.359375 224.347656 229.597656 C 223.765625 229.839844 223.164062 230.023438 222.546875 230.144531 C 221.929688 230.265625 221.304688 230.328125 220.675781 230.328125 C 220.046875 230.328125 219.421875 230.265625 218.804688 230.144531 C 218.1875 230.023438 217.585938 229.839844 217.003906 229.597656 C 216.421875 229.359375 215.871094 229.0625 215.347656 228.710938 C 214.824219 228.363281 214.339844 227.964844 213.894531 227.519531 L 190.796875 204.425781 C 187.378906 206.609375 183.722656 208.269531 179.832031 209.414062 C 175.9375 210.554688 171.960938 211.132812 167.90625 211.140625 C 166.492188 211.140625 165.082031 211.074219 163.675781 210.933594 C 162.265625 210.796875 160.871094 210.589844 159.484375 210.3125 C 158.097656 210.035156 156.726562 209.691406 155.371094 209.28125 C 154.019531 208.871094 152.691406 208.394531 151.382812 207.855469 C 150.078125 207.3125 148.800781 206.710938 147.554688 206.042969 C 146.304688 205.378906 145.09375 204.652344 143.917969 203.867188 C 142.742188 203.078125 141.609375 202.238281 140.515625 201.339844 C 139.421875 200.445312 138.375 199.496094 137.375 198.496094 C 136.375 197.496094 135.425781 196.449219 134.53125 195.355469 C 133.632812 194.261719 132.792969 193.128906 132.007812 191.953125 C 131.222656 190.777344 130.496094 189.566406 129.828125 188.320312 C 129.160156 187.070312 128.558594 185.796875 128.015625 184.488281 C 127.476562 183.183594 127 181.851562 126.589844 180.5 C 126.179688 179.144531 125.835938 177.777344 125.558594 176.390625 C 125.285156 175.003906 125.078125 173.605469 124.9375 172.199219 C 124.800781 170.789062 124.730469 169.378906 124.730469 167.964844 C 124.730469 166.550781 124.800781 165.140625 124.9375 163.734375 C 125.078125 162.328125 125.285156 160.929688 125.558594 159.542969 C 125.835938 158.15625 126.179688 156.785156 126.589844 155.433594 C 127 154.078125 127.476562 152.75 128.015625 151.441406 C 128.558594 150.136719 129.160156 148.859375 129.828125 147.613281 C 130.496094 146.367188 131.222656 145.15625 132.007812 143.980469 C 132.792969 142.804688 133.632812 141.667969 134.53125 140.574219 C 135.425781 139.480469 136.375 138.4375 137.375 137.4375 C 138.375 136.4375 139.421875 135.488281 140.515625 134.589844 C 141.609375 133.695312 142.742188 132.851562 143.917969 132.066406 C 145.09375 131.28125 146.304688 130.554688 147.554688 129.886719 C 148.800781 129.222656 150.078125 128.617188 151.382812 128.078125 C 152.691406 127.535156 154.019531 127.058594 155.371094 126.648438 C 156.726562 126.238281 158.097656 125.894531 159.484375 125.621094 C 160.871094 125.34375 162.265625 125.136719 163.675781 124.996094 C 165.082031 124.859375 166.492188 124.789062 167.90625 124.789062 C 169.320312 124.789062 170.730469 124.859375 172.136719 124.996094 C 173.546875 125.136719 174.941406 125.34375 176.328125 125.621094 C 177.714844 125.894531 179.085938 126.238281 180.4375 126.648438 C 181.792969 127.058594 183.121094 127.535156 184.429688 128.078125 C 185.734375 128.617188 187.011719 129.222656 188.257812 129.886719 C 189.507812 130.554688 190.71875 131.28125 191.894531 132.066406 C 193.070312 132.851562 194.203125 133.695312 195.296875 134.589844 C 196.390625 135.488281 197.4375 136.4375 198.4375 137.4375 C 199.4375 138.4375 200.382812 139.480469 201.28125 140.574219 C 202.179688 141.667969 203.019531 142.804688 203.804688 143.980469 C 204.589844 145.15625 205.316406 146.367188 205.984375 147.613281 C 206.648438 148.859375 207.253906 150.136719 207.796875 151.441406 C 208.335938 152.75 208.8125 154.078125 209.222656 155.433594 C 209.632812 156.785156 209.976562 158.15625 210.253906 159.542969 C 210.527344 160.929688 210.734375 162.328125 210.875 163.734375 C 211.011719 165.140625 211.082031 166.550781 211.082031 167.964844 C 211.070312 172.023438 210.496094 175.996094 209.351562 179.890625 C 208.210938 183.78125 206.546875 187.4375 204.367188 190.859375 L 227.460938 213.953125 C 227.90625 214.398438 228.300781 214.882812 228.652344 215.40625 C 229.003906 215.929688 229.296875 216.484375 229.539062 217.066406 C 229.78125 217.648438 229.960938 218.246094 230.085938 218.863281 C 230.207031 219.484375 230.269531 220.105469 230.269531 220.738281 C 230.269531 221.367188 230.207031 221.988281 230.085938 222.609375 C 229.960938 223.226562 229.78125 223.824219 229.539062 224.40625 C 229.296875 224.988281 229.003906 225.542969 228.652344 226.066406 C 228.300781 226.589844 227.90625 227.074219 227.460938 227.519531 Z M 227.460938 227.519531 " fill-opacity="1" fill-rule="nonzero"/></g></svg>