<svg xmlns="http://www.w3.org/2000/svg" xmlns:xlink="http://www.w3.org/1999/xlink" width="308" zoomAndPan="magnify" viewBox="0 0 230.87999 231" height="308" preserveAspectRatio="xMidYMid meet" version="1.0"><defs><clipPath id="1c4e50f48b"><path d="M 0.0585938 0.117188 L 229.460938 0.117188 L 229.460938 229.523438 L 0.0585938 229.523438 Z M 0.0585938 0.117188 " clip-rule="nonzero"/></clipPath></defs><g clip-path="url(#1c4e50f48b)"><path fill="#ff5757" d="M 181.78125 0.117188 L 47.882812 0.117188 C 21.511719 0.117188 0.0585938 21.574219 0.0585938 47.941406 L 0.0585938 181.84375 C 0.0585938 208.210938 21.511719 229.664062 47.882812 229.664062 L 181.78125 229.664062 C 208.152344 229.664062 229.601562 208.210938 229.601562 181.84375 L 229.601562 47.941406 C 229.601562 21.574219 208.152344 0.117188 181.78125 0.117188 Z M 52.664062 191.40625 C 44.742188 191.40625 38.316406 184.976562 38.316406 177.058594 C 38.316406 169.140625 44.742188 162.714844 52.664062 162.714844 C 60.582031 162.714844 67.011719 169.140625 67.011719 177.058594 C 67.011719 184.976562 60.582031 191.40625 52.664062 191.40625 Z M 52.664062 67.070312 C 44.742188 67.070312 38.316406 60.640625 38.316406 52.726562 C 38.316406 44.804688 44.742188 38.375 52.664062 38.375 C 60.582031 38.375 67.011719 44.804688 67.011719 52.726562 C 67.011719 60.640625 60.582031 67.070312 52.664062 67.070312 Z M 114.832031 181.84375 C 106.914062 181.84375 100.484375 175.414062 100.484375 167.496094 C 100.484375 159.578125 106.914062 153.148438 114.832031 153.148438 C 122.75 153.148438 129.179688 159.578125 129.179688 167.496094 C 129.179688 175.414062 122.75 181.84375 114.832031 181.84375 Z M 133.289062 119.71875 C 128.304688 122.464844 124.398438 128.75 124.398438 134.019531 C 124.398438 139.292969 120.121094 143.585938 114.832031 143.585938 C 109.542969 143.585938 105.265625 139.308594 105.265625 134.019531 C 105.265625 121.835938 112.996094 109.066406 124.042969 102.964844 C 132.113281 98.519531 137.261719 87.890625 131.484375 76.167969 C 130.097656 73.34375 127.6875 70.933594 124.863281 69.546875 C 115.386719 64.890625 108.195312 67.796875 104.738281 69.941406 C 99.078125 73.46875 95.703125 79.542969 95.703125 86.199219 C 95.703125 91.488281 91.425781 95.765625 86.140625 95.765625 C 80.851562 95.765625 76.574219 91.488281 76.574219 86.199219 C 76.574219 72.882812 83.328125 60.738281 94.644531 53.699219 C 106.242188 46.46875 120.351562 46 133.300781 52.378906 C 139.929688 55.640625 145.390625 61.082031 148.652344 67.722656 C 158.253906 87.234375 151.644531 109.585938 133.289062 119.71875 Z M 177 191.40625 C 169.078125 191.40625 162.65625 184.976562 162.65625 177.058594 C 162.65625 169.140625 169.078125 162.714844 177 162.714844 C 184.917969 162.714844 191.34375 169.140625 191.34375 177.058594 C 191.34375 184.976562 184.917969 191.40625 177 191.40625 Z M 177 67.070312 C 169.078125 67.070312 162.65625 60.640625 162.65625 52.726562 C 162.65625 44.804688 169.078125 38.375 177 38.375 C 184.917969 38.375 191.34375 44.804688 191.34375 52.726562 C 191.34375 60.640625 184.917969 67.070312 177 67.070312 Z M 177 67.070312 " fill-opacity="1" fill-rule="nonzero"/></g></svg>