<svg xmlns="http://www.w3.org/2000/svg" xmlns:xlink="http://www.w3.org/1999/xlink" width="308" zoomAndPan="magnify" viewBox="0 0 230.87999 219.75" height="293" preserveAspectRatio="xMidYMid meet" version="1.0"><defs><clipPath id="4c871d61fa"><path d="M 0.0703125 0 L 230 0 L 230 219 L 0.0703125 219 Z M 0.0703125 0 " clip-rule="nonzero"/></clipPath></defs><g clip-path="url(#4c871d61fa)"><path fill="#fbca41" d="M 225.574219 95.136719 L 179.121094 140.492188 L 190.082031 204.53125 C 190.871094 209.097656 188.988281 213.703125 185.253906 216.421875 C 183.144531 217.960938 180.632812 218.738281 178.125 218.738281 C 176.183594 218.738281 174.257812 218.277344 172.476562 217.34375 L 115.0625 187.109375 L 57.65625 217.34375 C 53.558594 219.507812 48.609375 219.144531 44.863281 216.421875 C 41.128906 213.699219 39.257812 209.097656 40.035156 204.53125 L 51.011719 140.492188 L 4.554688 95.136719 C 1.246094 91.910156 0.0585938 87.074219 1.488281 82.675781 C 2.917969 78.28125 6.710938 75.074219 11.28125 74.40625 L 75.476562 65.0625 L 104.179688 6.792969 C 106.214844 2.640625 110.433594 0.0195312 115.054688 0.0195312 C 119.679688 0.0195312 123.898438 2.640625 125.945312 6.792969 L 154.648438 65.0625 L 218.839844 74.40625 C 223.410156 75.074219 227.207031 78.28125 228.632812 82.675781 C 230.0625 87.074219 228.863281 91.910156 225.566406 95.136719 Z M 225.574219 95.136719 " fill-opacity="1" fill-rule="nonzero"/></g></svg>