<svg xmlns="http://www.w3.org/2000/svg" xmlns:xlink="http://www.w3.org/1999/xlink" width="295" zoomAndPan="magnify" viewBox="0 0 221.25 184.499993" height="246" preserveAspectRatio="xMidYMid meet" version="1.0"><defs><clipPath id="0c5452a988"><path d="M 0 0.0625 L 220.503906 0.0625 L 220.503906 183.191406 L 0 183.191406 Z M 0 0.0625 " clip-rule="nonzero"/></clipPath></defs><g clip-path="url(#0c5452a988)"><path fill="#ffba09" d="M 220.355469 162.589844 L 220.355469 49.351562 C 220.351562 48.679688 220.316406 48.007812 220.25 47.335938 C 220.183594 46.667969 220.082031 46 219.953125 45.339844 C 219.820312 44.679688 219.65625 44.027344 219.457031 43.382812 C 219.261719 42.742188 219.035156 42.105469 218.773438 41.484375 C 218.515625 40.863281 218.226562 40.253906 217.910156 39.664062 C 217.59375 39.070312 217.246094 38.492188 216.871094 37.933594 C 216.496094 37.371094 216.09375 36.832031 215.667969 36.3125 C 215.238281 35.792969 214.785156 35.292969 214.308594 34.820312 C 213.832031 34.34375 213.335938 33.890625 212.8125 33.464844 C 212.292969 33.039062 211.75 32.636719 211.191406 32.265625 C 210.632812 31.890625 210.054688 31.542969 209.460938 31.226562 C 208.867188 30.910156 208.257812 30.625 207.636719 30.367188 C 207.011719 30.109375 206.378906 29.882812 205.734375 29.6875 C 205.089844 29.492188 204.4375 29.328125 203.777344 29.195312 C 203.117188 29.066406 202.449219 28.96875 201.78125 28.902344 C 201.109375 28.835938 200.4375 28.800781 199.765625 28.800781 L 93.492188 28.800781 C 91.886719 12.539062 72.023438 0.0625 46.84375 0.0625 C 20.628906 0.0625 0.078125 13.609375 0.078125 30.90625 C 0.125 33.738281 0.664062 36.46875 1.699219 39.105469 C 2.730469 41.738281 4.195312 44.109375 6.085938 46.214844 C 5.886719 47.25 5.785156 48.296875 5.78125 49.351562 L 5.78125 162.589844 C 5.78125 163.261719 5.816406 163.933594 5.886719 164.605469 C 5.953125 165.273438 6.054688 165.9375 6.1875 166.597656 C 6.320312 167.257812 6.484375 167.910156 6.679688 168.554688 C 6.878906 169.199219 7.105469 169.832031 7.363281 170.453125 C 7.625 171.074219 7.914062 171.683594 8.230469 172.277344 C 8.550781 172.867188 8.894531 173.445312 9.269531 174.003906 C 9.644531 174.5625 10.046875 175.101562 10.476562 175.625 C 10.902344 176.144531 11.355469 176.640625 11.832031 177.117188 C 12.308594 177.59375 12.804688 178.042969 13.328125 178.46875 C 13.847656 178.898438 14.386719 179.296875 14.949219 179.671875 C 15.507812 180.046875 16.085938 180.390625 16.679688 180.707031 C 17.273438 181.023438 17.882812 181.3125 18.503906 181.570312 C 19.125 181.828125 19.757812 182.054688 20.402344 182.25 C 21.046875 182.445312 21.699219 182.609375 22.359375 182.742188 C 23.019531 182.875 23.683594 182.972656 24.355469 183.039062 C 25.023438 183.105469 25.695312 183.140625 26.371094 183.140625 L 89.09375 183.140625 L 89.09375 196.382812 L 75.507812 196.382812 C 74.933594 196.378906 74.359375 196.410156 73.785156 196.464844 C 73.214844 196.519531 72.648438 196.605469 72.082031 196.714844 C 71.519531 196.828125 70.964844 196.96875 70.414062 197.132812 C 69.863281 197.300781 69.324219 197.492188 68.792969 197.710938 C 68.261719 197.933594 67.742188 198.175781 67.234375 198.445312 C 66.726562 198.71875 66.234375 199.011719 65.757812 199.332031 C 65.28125 199.648438 64.820312 199.992188 64.375 200.355469 C 63.929688 200.71875 63.503906 201.105469 63.097656 201.511719 C 62.691406 201.914062 62.304688 202.339844 61.941406 202.785156 C 61.574219 203.226562 61.230469 203.6875 60.914062 204.164062 C 60.59375 204.644531 60.296875 205.136719 60.027344 205.640625 C 59.753906 206.148438 59.507812 206.667969 59.289062 207.195312 C 59.066406 207.726562 58.871094 208.265625 58.703125 208.816406 C 58.539062 209.367188 58.398438 209.921875 58.285156 210.484375 C 58.171875 211.050781 58.085938 211.617188 58.027344 212.1875 C 57.972656 212.761719 57.941406 213.332031 57.941406 213.90625 L 57.941406 225.847656 C 57.941406 226.355469 58.039062 226.84375 58.234375 227.3125 C 58.425781 227.78125 58.703125 228.195312 59.0625 228.554688 C 59.421875 228.914062 59.835938 229.1875 60.304688 229.382812 C 60.773438 229.578125 61.261719 229.675781 61.769531 229.675781 L 164.367188 229.675781 C 164.875 229.675781 165.363281 229.578125 165.832031 229.382812 C 166.300781 229.1875 166.714844 228.914062 167.074219 228.554688 C 167.429688 228.195312 167.707031 227.78125 167.902344 227.3125 C 168.097656 226.84375 168.191406 226.355469 168.191406 225.847656 L 168.191406 213.90625 C 168.195312 213.335938 168.164062 212.761719 168.109375 212.191406 C 168.054688 211.617188 167.96875 211.050781 167.855469 210.488281 C 167.746094 209.925781 167.605469 209.371094 167.441406 208.820312 C 167.273438 208.269531 167.078125 207.730469 166.859375 207.199219 C 166.640625 206.667969 166.394531 206.152344 166.125 205.644531 C 165.855469 205.140625 165.558594 204.648438 165.242188 204.167969 C 164.921875 203.691406 164.582031 203.230469 164.214844 202.789062 C 163.851562 202.34375 163.46875 201.917969 163.0625 201.511719 C 162.65625 201.109375 162.230469 200.722656 161.785156 200.359375 C 161.34375 199.992188 160.882812 199.652344 160.40625 199.332031 C 159.925781 199.015625 159.433594 198.71875 158.929688 198.449219 C 158.421875 198.179688 157.90625 197.933594 157.375 197.714844 C 156.84375 197.496094 156.304688 197.300781 155.753906 197.136719 C 155.207031 196.96875 154.648438 196.828125 154.085938 196.71875 C 153.523438 196.605469 152.957031 196.519531 152.382812 196.464844 C 151.8125 196.410156 151.242188 196.382812 150.667969 196.382812 L 137.082031 196.382812 L 137.082031 183.140625 L 199.765625 183.140625 C 200.4375 183.140625 201.109375 183.105469 201.78125 183.042969 C 202.449219 182.976562 203.117188 182.875 203.777344 182.746094 C 204.4375 182.613281 205.089844 182.449219 205.734375 182.253906 C 206.378906 182.058594 207.011719 181.832031 207.636719 181.578125 C 208.257812 181.320312 208.867188 181.03125 209.460938 180.714844 C 210.054688 180.398438 210.632812 180.050781 211.191406 179.679688 C 211.75 179.304688 212.292969 178.902344 212.8125 178.476562 C 213.335938 178.050781 213.832031 177.597656 214.308594 177.125 C 214.785156 176.648438 215.238281 176.148438 215.667969 175.628906 C 216.09375 175.109375 216.496094 174.570312 216.871094 174.007812 C 217.246094 173.449219 217.59375 172.875 217.910156 172.28125 C 218.226562 171.6875 218.515625 171.078125 218.773438 170.457031 C 219.035156 169.835938 219.261719 169.203125 219.457031 168.558594 C 219.65625 167.914062 219.820312 167.261719 219.953125 166.601562 C 220.082031 165.941406 220.183594 165.273438 220.25 164.605469 C 220.316406 163.933594 220.351562 163.261719 220.355469 162.589844 Z M 90.929688 77.136719 C 90.929688 76.410156 90.964844 75.6875 91.039062 74.964844 C 91.109375 74.246094 91.214844 73.53125 91.359375 72.820312 C 91.5 72.109375 91.675781 71.40625 91.886719 70.710938 C 92.097656 70.019531 92.34375 69.335938 92.621094 68.667969 C 92.898438 68 93.207031 67.34375 93.550781 66.707031 C 93.890625 66.066406 94.265625 65.445312 94.667969 64.84375 C 95.070312 64.242188 95.503906 63.660156 95.960938 63.101562 C 96.421875 62.539062 96.910156 62.003906 97.421875 61.492188 C 97.933594 60.980469 98.472656 60.492188 99.03125 60.035156 C 99.59375 59.574219 100.175781 59.144531 100.777344 58.742188 C 101.378906 58.339844 102 57.96875 102.640625 57.625 C 103.28125 57.285156 103.933594 56.976562 104.605469 56.699219 C 105.273438 56.421875 105.957031 56.175781 106.648438 55.96875 C 107.34375 55.757812 108.046875 55.582031 108.757812 55.441406 C 109.46875 55.300781 110.183594 55.191406 110.90625 55.121094 C 111.625 55.050781 112.347656 55.015625 113.074219 55.015625 C 113.796875 55.015625 114.519531 55.050781 115.242188 55.125 C 115.964844 55.195312 116.679688 55.300781 117.390625 55.441406 C 118.101562 55.585938 118.804688 55.761719 119.496094 55.972656 C 120.191406 56.179688 120.871094 56.425781 121.542969 56.703125 C 122.210938 56.980469 122.867188 57.289062 123.503906 57.632812 C 124.144531 57.972656 124.765625 58.34375 125.367188 58.75 C 125.96875 59.152344 126.550781 59.582031 127.113281 60.042969 C 127.671875 60.5 128.207031 60.988281 128.722656 61.5 C 129.234375 62.011719 129.71875 62.550781 130.179688 63.109375 C 130.640625 63.671875 131.070312 64.25 131.472656 64.855469 C 131.875 65.457031 132.25 66.078125 132.589844 66.714844 C 132.933594 67.355469 133.242188 68.011719 133.519531 68.679688 C 133.796875 69.347656 134.039062 70.03125 134.25 70.722656 C 134.460938 71.417969 134.636719 72.121094 134.78125 72.832031 C 134.921875 73.542969 135.027344 74.257812 135.097656 74.980469 C 135.167969 75.699219 135.207031 76.421875 135.207031 77.148438 C 135.207031 77.875 135.171875 78.597656 135.101562 79.316406 C 135.027344 80.039062 134.921875 80.753906 134.78125 81.464844 C 134.640625 82.175781 134.464844 82.878906 134.253906 83.574219 C 134.042969 84.265625 133.800781 84.949219 133.523438 85.617188 C 133.246094 86.289062 132.9375 86.941406 132.597656 87.582031 C 132.253906 88.222656 131.882812 88.84375 131.480469 89.445312 C 131.078125 90.046875 130.648438 90.628906 130.1875 91.191406 C 129.730469 91.75 129.242188 92.289062 128.730469 92.800781 C 128.21875 93.3125 127.683594 93.800781 127.121094 94.257812 C 126.5625 94.71875 125.980469 95.152344 125.378906 95.554688 C 124.777344 95.957031 124.15625 96.328125 123.515625 96.671875 C 122.878906 97.015625 122.222656 97.324219 121.554688 97.601562 C 120.882812 97.878906 120.203125 98.125 119.507812 98.335938 C 118.816406 98.546875 118.113281 98.722656 117.402344 98.863281 C 116.691406 99.007812 115.976562 99.113281 115.253906 99.183594 C 114.535156 99.257812 113.8125 99.292969 113.085938 99.292969 C 112.359375 99.292969 111.636719 99.257812 110.914062 99.1875 C 110.191406 99.113281 109.476562 99.007812 108.765625 98.867188 C 108.050781 98.726562 107.347656 98.550781 106.65625 98.339844 C 105.960938 98.128906 105.277344 97.882812 104.609375 97.605469 C 103.9375 97.328125 103.28125 97.019531 102.640625 96.675781 C 102.003906 96.332031 101.378906 95.960938 100.777344 95.558594 C 100.175781 95.15625 99.589844 94.722656 99.03125 94.261719 C 98.46875 93.800781 97.933594 93.316406 97.417969 92.800781 C 96.90625 92.289062 96.417969 91.753906 95.960938 91.191406 C 95.5 90.628906 95.066406 90.046875 94.664062 89.445312 C 94.261719 88.839844 93.886719 88.21875 93.546875 87.578125 C 93.203125 86.941406 92.894531 86.285156 92.617188 85.613281 C 92.339844 84.945312 92.09375 84.261719 91.882812 83.566406 C 91.671875 82.871094 91.496094 82.167969 91.355469 81.457031 C 91.214844 80.746094 91.105469 80.03125 91.035156 79.308594 C 90.964844 78.585938 90.929688 77.863281 90.929688 77.136719 Z M 113.085938 106.945312 C 114.410156 106.949219 115.734375 107.011719 117.054688 107.140625 C 118.371094 107.269531 119.683594 107.457031 120.984375 107.710938 C 122.285156 107.964844 123.570312 108.277344 124.84375 108.652344 C 126.113281 109.027344 127.367188 109.460938 128.59375 109.953125 C 129.824219 110.445312 131.03125 110.996094 132.207031 111.605469 C 133.386719 112.210938 134.53125 112.875 135.648438 113.59375 C 136.761719 114.308594 137.839844 115.078125 138.882812 115.894531 C 139.921875 116.714844 140.925781 117.582031 141.882812 118.496094 C 142.84375 119.410156 143.757812 120.371094 144.625 121.371094 C 145.492188 122.371094 146.3125 123.414062 147.082031 124.492188 C 147.851562 125.570312 148.566406 126.683594 149.230469 127.832031 C 149.894531 128.980469 150.503906 130.15625 151.054688 131.359375 C 151.605469 132.566406 152.097656 133.792969 152.535156 135.046875 C 152.96875 136.296875 153.34375 137.566406 153.65625 138.855469 C 153.972656 140.144531 154.222656 141.441406 154.414062 142.753906 C 154.605469 144.066406 154.734375 145.382812 154.800781 146.707031 L 71.375 146.707031 C 71.4375 145.382812 71.566406 144.066406 71.753906 142.753906 C 71.945312 141.441406 72.195312 140.140625 72.511719 138.855469 C 72.824219 137.566406 73.199219 136.296875 73.632812 135.042969 C 74.066406 133.792969 74.5625 132.5625 75.113281 131.355469 C 75.664062 130.152344 76.269531 128.972656 76.933594 127.828125 C 77.597656 126.679688 78.3125 125.566406 79.082031 124.484375 C 79.851562 123.40625 80.671875 122.367188 81.539062 121.363281 C 82.410156 120.363281 83.324219 119.40625 84.28125 118.488281 C 85.242188 117.574219 86.242188 116.707031 87.285156 115.886719 C 88.328125 115.070312 89.40625 114.300781 90.519531 113.585938 C 91.636719 112.867188 92.78125 112.207031 93.960938 111.597656 C 95.136719 110.988281 96.34375 110.4375 97.574219 109.945312 C 98.804688 109.453125 100.054688 109.019531 101.328125 108.644531 C 102.597656 108.269531 103.886719 107.957031 105.1875 107.707031 C 106.488281 107.457031 107.800781 107.265625 109.117188 107.140625 C 110.4375 107.011719 111.761719 106.949219 113.085938 106.945312 Z M 7.734375 30.90625 C 7.734375 18.316406 25.640625 7.714844 46.84375 7.714844 C 68.042969 7.714844 85.992188 18.316406 85.992188 30.90625 C 85.992188 36.800781 82.128906 42.464844 75.085938 46.828125 C 74.757812 47.03125 74.46875 47.28125 74.214844 47.574219 C 73.964844 47.871094 73.761719 48.195312 73.605469 48.550781 C 73.453125 48.90625 73.355469 49.273438 73.3125 49.660156 C 73.273438 50.042969 73.289062 50.425781 73.363281 50.808594 C 73.738281 52.8125 74.453125 54.6875 75.507812 56.433594 C 73.6875 56.484375 71.890625 56.320312 70.109375 55.933594 C 67.464844 55.425781 64.976562 54.496094 62.648438 53.140625 C 62.054688 52.804688 61.417969 52.640625 60.734375 52.644531 C 60.464844 52.632812 60.195312 52.65625 59.929688 52.71875 C 55.617188 53.640625 51.253906 54.101562 46.84375 54.097656 C 25.640625 54.097656 7.734375 43.460938 7.734375 30.90625 Z M 150.667969 204.035156 C 151.3125 204.035156 151.957031 204.101562 152.589844 204.226562 C 153.226562 204.355469 153.84375 204.542969 154.441406 204.792969 C 155.039062 205.042969 155.609375 205.34375 156.144531 205.707031 C 156.683594 206.066406 157.183594 206.476562 157.640625 206.933594 C 158.097656 207.390625 158.507812 207.890625 158.867188 208.429688 C 159.230469 208.964844 159.535156 209.535156 159.78125 210.132812 C 160.03125 210.730469 160.21875 211.347656 160.347656 211.984375 C 160.472656 212.617188 160.539062 213.261719 160.539062 213.90625 L 160.539062 222.019531 L 65.59375 222.019531 L 65.59375 213.90625 C 65.597656 213.257812 65.664062 212.617188 65.789062 211.980469 C 65.917969 211.34375 66.109375 210.726562 66.359375 210.125 C 66.609375 209.527344 66.914062 208.957031 67.277344 208.417969 C 67.636719 207.878906 68.050781 207.378906 68.507812 206.921875 C 68.96875 206.464844 69.46875 206.054688 70.011719 205.695312 C 70.550781 205.335938 71.121094 205.03125 71.722656 204.785156 C 72.320312 204.535156 72.941406 204.347656 73.578125 204.222656 C 74.214844 204.097656 74.855469 204.035156 75.507812 204.035156 Z M 96.746094 196.382812 L 96.746094 183.140625 L 129.425781 183.140625 L 129.425781 196.382812 Z M 212.699219 162.589844 C 212.699219 163.4375 212.613281 164.277344 212.449219 165.109375 C 212.28125 165.941406 212.035156 166.75 211.710938 167.53125 C 211.382812 168.316406 210.984375 169.058594 210.515625 169.761719 C 210.042969 170.46875 209.503906 171.121094 208.90625 171.71875 C 208.304688 172.316406 207.652344 172.851562 206.945312 173.320312 C 206.238281 173.792969 205.492188 174.1875 204.710938 174.511719 C 203.925781 174.835938 203.117188 175.078125 202.285156 175.242188 C 201.453125 175.40625 200.613281 175.488281 199.765625 175.484375 L 26.371094 175.484375 C 25.523438 175.484375 24.683594 175.402344 23.851562 175.238281 C 23.019531 175.074219 22.210938 174.828125 21.429688 174.503906 C 20.644531 174.179688 19.902344 173.785156 19.195312 173.3125 C 18.488281 172.84375 17.835938 172.308594 17.238281 171.710938 C 16.636719 171.113281 16.101562 170.460938 15.628906 169.757812 C 15.15625 169.054688 14.757812 168.308594 14.429688 167.527344 C 14.105469 166.746094 13.855469 165.9375 13.691406 165.109375 C 13.523438 164.277344 13.4375 163.4375 13.433594 162.589844 L 13.433594 154.363281 L 212.699219 154.363281 Z M 212.699219 162.589844 " fill-opacity="1" fill-rule="nonzero"/></g><path fill="#ffba09" d="M 34.328125 168.023438 C 34.792969 168.222656 35.277344 168.324219 35.785156 168.328125 C 36.035156 168.332031 36.285156 168.308594 36.53125 168.261719 C 36.78125 168.214844 37.019531 168.144531 37.253906 168.050781 C 37.488281 167.953125 37.710938 167.835938 37.917969 167.695312 C 38.128906 167.558594 38.324219 167.398438 38.5 167.21875 C 38.679688 167.042969 38.839844 166.847656 38.976562 166.636719 C 39.117188 166.429688 39.234375 166.207031 39.328125 165.972656 C 39.425781 165.742188 39.496094 165.5 39.542969 165.253906 C 39.589844 165.003906 39.613281 164.753906 39.609375 164.503906 C 39.617188 164 39.527344 163.515625 39.34375 163.050781 C 39.140625 162.574219 38.863281 162.152344 38.5 161.785156 C 38.140625 161.433594 37.726562 161.164062 37.257812 160.976562 C 36.792969 160.785156 36.304688 160.691406 35.800781 160.691406 C 35.300781 160.691406 34.8125 160.785156 34.347656 160.976562 C 33.878906 161.164062 33.464844 161.433594 33.105469 161.785156 C 32.722656 162.136719 32.441406 162.558594 32.261719 163.050781 C 32.066406 163.511719 31.960938 164 31.957031 164.503906 C 31.96875 165.566406 32.351562 166.472656 33.105469 167.21875 C 33.460938 167.570312 33.867188 167.835938 34.328125 168.023438 Z M 34.328125 168.023438 " fill-opacity="1" fill-rule="nonzero"/><path fill="#ffba09" d="M 55.761719 168.023438 C 56.105469 168.167969 56.464844 168.257812 56.835938 168.292969 C 57.210938 168.332031 57.578125 168.3125 57.945312 168.242188 C 58.3125 168.171875 58.664062 168.046875 58.996094 167.875 C 59.324219 167.699219 59.625 167.480469 59.894531 167.21875 C 60.644531 166.472656 61.027344 165.566406 61.039062 164.503906 C 61.035156 164 60.933594 163.511719 60.734375 163.050781 C 60.546875 162.566406 60.265625 162.144531 59.894531 161.785156 C 59.539062 161.4375 59.128906 161.167969 58.667969 160.980469 C 57.699219 160.585938 56.730469 160.585938 55.761719 160.980469 C 55.28125 161.160156 54.859375 161.429688 54.496094 161.785156 C 54.140625 162.15625 53.859375 162.578125 53.65625 163.050781 C 53.46875 163.515625 53.378906 164 53.386719 164.503906 C 53.402344 165.554688 53.773438 166.460938 54.496094 167.21875 C 54.859375 167.578125 55.28125 167.847656 55.761719 168.023438 Z M 55.761719 168.023438 " fill-opacity="1" fill-rule="nonzero"/><path fill="#ffba09" d="M 77.152344 168.023438 C 77.617188 168.222656 78.101562 168.324219 78.605469 168.328125 C 79.660156 168.320312 80.566406 167.953125 81.324219 167.21875 C 82.066406 166.46875 82.4375 165.5625 82.433594 164.503906 C 82.441406 164 82.351562 163.515625 82.164062 163.050781 C 81.953125 162.582031 81.671875 162.164062 81.324219 161.785156 C 81.054688 161.519531 80.753906 161.300781 80.417969 161.125 C 80.082031 160.949219 79.730469 160.824219 79.359375 160.753906 C 78.988281 160.679688 78.613281 160.664062 78.238281 160.703125 C 77.863281 160.742188 77.5 160.835938 77.152344 160.980469 C 76.683594 161.179688 76.265625 161.445312 75.890625 161.785156 C 75.53125 162.148438 75.261719 162.570312 75.085938 163.050781 C 74.886719 163.511719 74.785156 164 74.78125 164.503906 C 74.792969 165.554688 75.164062 166.460938 75.890625 167.21875 C 76.265625 167.558594 76.683594 167.828125 77.152344 168.023438 Z M 77.152344 168.023438 " fill-opacity="1" fill-rule="nonzero"/><path fill="#ffba09" d="M 65.824219 34.773438 C 66.011719 34.960938 66.214844 35.125 66.4375 35.269531 C 66.640625 35.40625 66.859375 35.523438 67.085938 35.613281 C 67.324219 35.714844 67.566406 35.789062 67.816406 35.84375 C 68.054688 35.886719 68.296875 35.914062 68.542969 35.921875 C 69.605469 35.914062 70.511719 35.53125 71.257812 34.773438 C 71.605469 34.410156 71.886719 34 72.101562 33.546875 C 72.285156 33.082031 72.375 32.597656 72.367188 32.09375 C 72.359375 31.039062 71.992188 30.132812 71.257812 29.375 C 71.078125 29.199219 70.886719 29.035156 70.683594 28.878906 L 69.996094 28.535156 C 69.769531 28.453125 69.542969 28.390625 69.308594 28.34375 C 68.808594 28.226562 68.3125 28.226562 67.816406 28.34375 C 67.566406 28.382812 67.324219 28.449219 67.085938 28.535156 C 66.859375 28.648438 66.628906 28.765625 66.4375 28.878906 C 66.214844 29.023438 66.011719 29.191406 65.824219 29.375 C 65.09375 30.132812 64.722656 31.039062 64.714844 32.09375 C 64.734375 33.132812 65.105469 34.023438 65.824219 34.773438 Z M 65.824219 34.773438 " fill-opacity="1" fill-rule="nonzero"/><path fill="#ffba09" d="M 50.402344 33.546875 C 50.679688 32.828125 50.746094 32.09375 50.59375 31.339844 C 50.441406 30.582031 50.097656 29.929688 49.558594 29.375 C 49.386719 29.191406 49.195312 29.023438 48.984375 28.878906 C 48.796875 28.765625 48.566406 28.648438 48.335938 28.535156 C 48.097656 28.453125 47.855469 28.390625 47.609375 28.34375 C 46.851562 28.195312 46.109375 28.257812 45.390625 28.535156 C 44.925781 28.734375 44.519531 29.015625 44.164062 29.375 C 43.988281 29.558594 43.820312 29.75 43.667969 29.949219 C 43.550781 30.179688 43.4375 30.371094 43.324219 30.601562 C 43.207031 30.832031 43.167969 31.097656 43.09375 31.328125 C 43.046875 31.582031 43.023438 31.835938 43.015625 32.09375 C 43.023438 32.597656 43.125 33.082031 43.324219 33.546875 C 43.523438 34.011719 43.804688 34.417969 44.164062 34.773438 C 44.507812 35.144531 44.917969 35.425781 45.390625 35.613281 C 45.855469 35.8125 46.339844 35.914062 46.84375 35.921875 C 47.914062 35.925781 48.816406 35.542969 49.558594 34.773438 C 49.921875 34.417969 50.199219 34.011719 50.402344 33.546875 Z M 50.402344 33.546875 " fill-opacity="1" fill-rule="nonzero"/><path fill="#ffba09" d="M 26.636719 28.535156 C 26.289062 28.386719 25.925781 28.292969 25.546875 28.253906 C 25.167969 28.214844 24.792969 28.230469 24.421875 28.308594 C 24.046875 28.382812 23.695312 28.511719 23.363281 28.695312 C 23.027344 28.875 22.730469 29.101562 22.464844 29.375 C 21.707031 30.125 21.335938 31.027344 21.355469 32.09375 C 21.347656 32.597656 21.4375 33.082031 21.625 33.546875 C 21.824219 34.011719 22.105469 34.417969 22.464844 34.773438 C 22.808594 35.144531 23.21875 35.425781 23.691406 35.613281 C 24.167969 35.808594 24.667969 35.910156 25.183594 35.921875 C 25.6875 35.914062 26.171875 35.8125 26.636719 35.613281 C 27.589844 35.191406 28.28125 34.5 28.703125 33.546875 C 28.855469 33.199219 28.949219 32.835938 28.988281 32.457031 C 29.03125 32.078125 29.011719 31.703125 28.9375 31.328125 C 28.863281 30.957031 28.730469 30.605469 28.550781 30.269531 C 28.367188 29.9375 28.136719 29.640625 27.863281 29.375 C 27.507812 29.015625 27.101562 28.734375 26.636719 28.535156 Z M 26.636719 28.535156 " fill-opacity="1" fill-rule="nonzero"/></svg>