<?xml version="1.0" encoding="UTF-8" standalone="no"?>
<!DOCTYPE svg PUBLIC "-//W3C//DTD SVG 1.1//EN" "http://www.w3.org/Graphics/SVG/1.1/DTD/svg11.dtd">
<svg width="100%" height="100%" viewBox="0 0 989 955" version="1.1" xmlns="http://www.w3.org/2000/svg" xmlns:xlink="http://www.w3.org/1999/xlink" xml:space="preserve" xmlns:serif="http://www.serif.com/" style="fill-rule:evenodd;clip-rule:evenodd;stroke-linecap:round;stroke-linejoin:round;stroke-miterlimit:1.5;">
    <g transform="matrix(1,0,0,1,-4,-8)">
        <g transform="matrix(0.981299,0,0,0.981299,1073.541339,-49.064961)">
            <g transform="matrix(1.161115,0,0,1.121198,-2428.688998,0.971375)">
                <path d="M2021,184.712L2021,785.288C2021,859.086 1963.146,919 1891.885,919L1282.115,919C1210.854,919 1153,859.086 1153,785.288L1153,184.712C1153,110.914 1210.854,51 1282.115,51L1891.885,51C1963.146,51 2021,110.914 2021,184.712Z" style="fill:rgb(59,20,41);"/>
                <clipPath id="_clip1">
                    <path d="M2021,184.712L2021,785.288C2021,859.086 1963.146,919 1891.885,919L1282.115,919C1210.854,919 1153,859.086 1153,785.288L1153,184.712C1153,110.914 1210.854,51 1282.115,51L1891.885,51C1963.146,51 2021,110.914 2021,184.712Z"/>
                </clipPath>
                <g clip-path="url(#_clip1)">
                    <g transform="matrix(4.419841,0,0,4.577197,1587.877654,473.99103)">
                        <g transform="matrix(1,0,0,1,-69.5,-48)">
                            <clipPath id="_clip2">
                                <rect x="0" y="0" width="139" height="96"/>
                            </clipPath>
                            <g clip-path="url(#_clip2)">
                                <g transform="matrix(1,0,0,1,-10.5,-32.25)">
                                    <g transform="matrix(0.8625,0,0,0.8625,11,12.9125)">
                                        <path d="M0,66.743L40,67L40,78L31,78L47,133L29,133L0,66.743Z" style="fill:rgb(255,49,159);stroke:rgb(255,49,159);stroke-width:1.16px;"/>
                                        <path d="M44,45L53,133L84,133L80,56L92,56L92,45L44,45Z" style="fill:rgb(255,49,159);stroke:rgb(255,49,159);stroke-width:1.16px;"/>
                                        <path d="M90,133L130,133L160,23L103,23L90,133Z" style="fill:rgb(255,49,159);stroke:rgb(255,49,159);stroke-width:1.16px;"/>
                                    </g>
                                </g>
                            </g>
                        </g>
                    </g>
                </g>
            </g>
        </g>
    </g>
</svg>
